<svg width="211" height="145" viewBox="0 0 211 145" fill="none" xmlns="http://www.w3.org/2000/svg">
<path d="M140.352 53.1371L140.357 52.654L139.875 52.6206L135.289 52.3022C134.208 49.8465 131.895 43.4131 134.998 36.2211L134.999 36.221C138.872 27.2349 149.526 20.9656 160.979 20.2099L160.98 20.2099C176.372 19.1934 186.286 28.6124 188.268 30.4964C192.672 34.6847 195.902 40.2097 197.102 45.8666C198.302 51.517 197.475 57.2755 193.807 61.9973L193.807 61.9974C191.318 65.2022 188.043 67.2574 185.458 68.5396L185.126 68.7046L185.179 69.072L191.679 113.952L178.847 117.312L139.797 104.895L140.352 53.1371Z" fill="white" stroke="black" stroke-width="1.02451"/>
<path d="M173.158 20.9207L179.022 25.1834L171.185 26.206L173.592 30.5082C171.09 31.4419 168.726 32.6012 166.544 33.9641C163.195 36.0571 160.342 38.625 158.124 41.5432" stroke="black" stroke-width="0.566028" stroke-linecap="round" stroke-linejoin="round"/>
<path d="M156.461 22.7314L151.774 25.9184L154.294 26.5086L148.875 30.8476C148.935 32.6508 149.189 34.4462 149.634 36.2136C150.339 38.9978 151.504 41.6921 153.098 44.2233" stroke="black" stroke-width="0.566028" stroke-linecap="round" stroke-linejoin="round"/>
<path d="M160.273 22.9665C163.768 21.0214 167.156 20.3403 168.722 21.3234C169.044 21.5294 169.293 21.8008 169.444 22.1101C166.626 24.1221 164.099 26.3873 161.912 28.8622C159.267 31.8559 157.166 35.143 155.676 38.6223C154.841 35.4127 155.058 32.0819 156.304 28.9613C157.185 26.7902 158.528 24.7612 160.273 22.9665Z" fill="#6BCBB8"/>
<path d="M159.016 24.4058C159.091 22.9335 159.169 21.4609 159.249 19.9879C158.8 19.9812 158.353 19.9337 157.916 19.8466C157.349 19.7325 156.806 19.5512 156.304 19.3087C155.399 18.8424 154.933 18.1494 154.585 17.4857C154.216 16.7854 153.329 14.8569 153.326 9.02081C153.326 8.23876 153.341 7.10606 153.972 5.7751C154.229 5.23515 154.558 4.71983 154.954 4.23853L167.508 5.45567L174.348 10.9007C175.456 12.5933 174.957 14.5356 173.329 15.549C171.701 16.5623 169.62 16.2282 169.33 16.1786C169.368 18.1558 169.406 20.133 169.443 22.1101L166.559 24.0974C165.901 24.2011 165.2 24.2911 164.457 24.359C162.65 24.5236 160.827 24.5393 159.016 24.4058Z" fill="#FF9E9F"/>
<path d="M150.847 107.393C151.16 72.5364 152.831 47.0269 154.505 41.7893C155.178 39.7458 156.027 37.7432 157.046 35.7963C159.9 30.5565 164.131 25.8856 169.444 22.1104" stroke="black" stroke-width="0.566028" stroke-linecap="round" stroke-linejoin="round"/>
<path d="M172.36 12.4177L169.751 12.884L171.733 14.226" stroke="black" stroke-width="0.566028" stroke-linecap="round" stroke-linejoin="round"/>
<path d="M157.94 16.7696C158.403 17.0026 158.927 17.1433 159.47 17.1799C160.284 17.2272 161.094 17.0506 161.77 16.6787" stroke="black" stroke-width="0.566028" stroke-linecap="round" stroke-linejoin="round"/>
<path d="M169.063 10.7409C169.418 10.4655 169.838 10.2501 170.297 10.1073C170.756 9.96457 171.245 9.89724 171.737 9.90925C173.583 9.97534 174.501 11.1842 174.56 11.2641C175.189 10.1574 175.435 8.93311 175.272 7.72188C174.844 4.79376 171.97 3.10574 171.102 2.59538C166.234 -0.270321 158.273 0.0096398 155.526 3.10482C155.12 3.56742 154.822 4.08633 154.647 4.63589C155.71 5.57674 158.657 7.9229 163.353 8.59573C165.163 8.85162 167.016 8.83451 168.819 8.54525L168.14 10.7666L169.063 10.7409Z" fill="#6BCBB8"/>
<path d="M160.286 14.6284L157.508 14.6413C158.59 13.3725 159.126 11.8496 159.033 10.3088C158.565 10.1217 158.066 9.99062 157.552 9.91957C156.4 9.77342 155.22 9.91727 154.172 10.3317" stroke="black" stroke-width="0.566028" stroke-linecap="round" stroke-linejoin="round"/>
<path d="M161.471 10.1901C162.069 9.89687 162.744 9.72377 163.441 9.68521C164.469 9.64137 165.484 9.88504 166.317 10.3755" stroke="black" stroke-width="0.566028" stroke-linecap="round" stroke-linejoin="round"/>
<path d="M169.493 64.4615C167.405 65.4712 165.441 65.7172 164.722 65.0948C163.808 64.3036 165.037 62.2154 166.038 61.1937C169.873 57.2789 179.962 59.2203 181.65 59.5617L184.027 64.948L185.688 68.7114C184.512 69.2635 183.195 69.5892 181.839 69.6632C180.976 69.7078 180.109 69.6478 179.268 69.4852C176.803 71.5339 174.198 72.1948 173.367 71.5964C172.574 71.03 173.027 69.0749 174.682 67.0619C171.892 69.1501 169.022 69.6504 168.143 68.9289C167.336 68.2735 167.874 66.357 169.493 64.4615Z" fill="#FF9E9F"/>
<path d="M173.08 71.2372C173.207 69.6241 173.883 68.0712 175.034 66.7514C175.747 65.9444 176.628 65.2446 177.638 64.6833" stroke="black" stroke-width="0.566028" stroke-linecap="round" stroke-linejoin="round"/>
<path d="M167.756 67.5833C168.137 65.9968 169.053 64.5271 170.403 63.338C171.239 62.6125 172.224 62.0105 173.315 61.5591" stroke="black" stroke-width="0.566028" stroke-linecap="round" stroke-linejoin="round"/>
<path d="M185.686 69.0023L180.421 56.9135C181.87 55.8239 183.042 54.5141 183.869 53.0583C184.239 52.401 184.535 51.7181 184.754 51.0178" stroke="black" stroke-width="0.566028" stroke-linecap="round" stroke-linejoin="round"/>
<path d="M144.808 61.7831L126 59.3231C125.667 59.2794 125.357 59.1568 125.109 58.9706C124.861 58.7845 124.686 58.543 124.607 58.2767L117.166 33.2674C117.099 33.0444 117.102 32.8114 117.173 32.5894C117.245 32.3673 117.383 32.1631 117.576 31.995C117.768 31.8269 118.009 31.7001 118.277 31.6259C118.545 31.5518 118.832 31.5327 119.111 31.5702L137.919 34.0293C138.252 34.0732 138.562 34.1959 138.81 34.382C139.057 34.5682 139.232 34.8095 139.311 35.0757L146.753 60.085C146.82 60.308 146.817 60.5409 146.745 60.7629C146.673 60.9848 146.535 61.189 146.343 61.3571C146.15 61.5252 145.909 61.6521 145.641 61.7264C145.374 61.8008 145.088 61.8202 144.808 61.7831Z" fill="#163342"/>
<path d="M143.468 63.0093L124.658 60.5493C124.324 60.5059 124.014 60.3835 123.766 60.1974C123.518 60.0114 123.343 59.7701 123.264 59.5038L115.828 34.4945C115.761 34.272 115.764 34.0396 115.835 33.8181C115.907 33.5965 116.044 33.3927 116.236 33.2246C116.428 33.0566 116.668 32.9296 116.935 32.8549C117.202 32.7802 117.487 32.7601 117.766 32.7964L136.574 35.2564C136.907 35.2998 137.218 35.4222 137.466 35.6083C137.714 35.7943 137.888 36.0356 137.967 36.3019L145.408 61.3121C145.475 61.5348 145.472 61.7673 145.401 61.989C145.33 62.2107 145.192 62.4147 145 62.5827C144.808 62.7507 144.567 62.8776 144.3 62.9521C144.033 63.0265 143.747 63.0461 143.468 63.0093Z" fill="#6BCBB8"/>
<path d="M121.679 42.1891C123.453 40.8425 124.29 39.3803 123.752 38.6478C123.087 37.7418 120.396 38.0512 118.764 38.5918C114.183 40.1091 110.033 46.0764 112.835 50.911C115.311 55.1821 121.678 55.9246 122.231 55.9825C123.212 55.2179 123.964 54.2804 124.427 53.2425C124.719 52.5826 124.888 51.8912 124.928 51.191C128.04 49.838 129.545 47.9921 129.067 47.1788C128.614 46.4069 126.175 46.2132 123.329 46.9466C126.577 45.3513 127.97 43.2557 127.353 42.3699C126.795 41.5658 124.374 41.4529 121.679 42.1891Z" fill="#FF9E9F"/>
<path d="M128.715 46.8623C126.769 46.5125 124.741 46.6079 122.858 47.1377C121.705 47.4695 120.632 47.9622 119.688 48.5935" stroke="black" stroke-width="0.566028" stroke-linecap="round" stroke-linejoin="round"/>
<path d="M125.859 41.701C123.874 41.5585 121.879 41.8652 120.096 42.5868C119.006 43.0373 118.021 43.6384 117.186 44.363" stroke="black" stroke-width="0.566028" stroke-linecap="round" stroke-linejoin="round"/>
<path d="M73.3395 108.874L48.3777 108.867C48.1218 108.866 47.8709 108.923 47.6522 109.031C47.4336 109.139 47.2557 109.293 47.1381 109.477C46.2601 110.859 45.7305 112.368 45.5804 113.918C45.5519 114.201 45.393 114.465 45.1354 114.657C44.8778 114.849 44.5403 114.956 44.1902 114.955H42.2442C42.061 114.955 41.8796 114.984 41.7103 115.041C41.541 115.098 41.3872 115.181 41.2577 115.286C41.1281 115.391 41.0254 115.516 40.9554 115.653C40.8853 115.79 40.8493 115.937 40.8495 116.086V140.255C40.8489 140.404 40.8845 140.552 40.9543 140.689C41.0241 140.827 41.1268 140.952 41.2563 141.058C41.3859 141.163 41.5398 141.247 41.7093 141.304C41.8788 141.361 42.0606 141.391 42.2442 141.391H46.1758C46.3592 141.391 46.5407 141.362 46.7101 141.305C46.8794 141.248 47.0333 141.164 47.1628 141.059C47.2923 140.954 47.395 140.829 47.465 140.692C47.5349 140.554 47.5708 140.407 47.5705 140.258C47.566 137.749 47.5611 135.242 47.5558 132.737C47.5555 132.588 47.5913 132.441 47.6613 132.304C47.7313 132.166 47.8339 132.041 47.9635 131.936C48.093 131.831 48.2469 131.747 48.4162 131.69C48.5856 131.633 48.7671 131.604 48.9505 131.604H73.3395" fill="#FFECE5"/>
<path d="M73.3395 108.874L48.3777 108.867C48.1218 108.866 47.8709 108.923 47.6522 109.031C47.4336 109.139 47.2557 109.293 47.1381 109.477C46.2601 110.859 45.7305 112.368 45.5804 113.918C45.5519 114.201 45.393 114.465 45.1354 114.657C44.8778 114.849 44.5403 114.956 44.1902 114.955H42.2442C42.061 114.955 41.8796 114.984 41.7103 115.041C41.541 115.098 41.3872 115.181 41.2577 115.286C41.1281 115.391 41.0254 115.516 40.9554 115.653C40.8853 115.79 40.8493 115.937 40.8495 116.086V140.255C40.8489 140.404 40.8845 140.552 40.9543 140.689C41.0241 140.827 41.1268 140.952 41.2563 141.058C41.3859 141.163 41.5398 141.247 41.7093 141.304C41.8788 141.361 42.0606 141.391 42.2442 141.391H46.1758C46.3592 141.391 46.5407 141.362 46.7101 141.305C46.8794 141.248 47.0333 141.164 47.1628 141.059C47.2923 140.954 47.395 140.829 47.465 140.692C47.5349 140.554 47.5708 140.407 47.5705 140.258C47.566 137.749 47.5611 135.242 47.5558 132.737C47.5555 132.588 47.5913 132.441 47.6613 132.304C47.7313 132.166 47.8339 132.041 47.9635 131.936C48.093 131.831 48.2469 131.747 48.4162 131.69C48.5856 131.633 48.7671 131.604 48.9505 131.604H73.3395" stroke="black" stroke-width="0.566028" stroke-linecap="round" stroke-linejoin="round"/>
<path d="M1 143.02V62.0518C1 61.9032 1.03612 61.756 1.10628 61.6188C1.17644 61.4815 1.27927 61.3568 1.4089 61.2518C1.53853 61.1468 1.69241 61.0635 1.86176 61.0067C2.0311 60.9499 2.21258 60.9208 2.39583 60.9209H62.3947C62.7644 60.9211 63.1189 61.0404 63.3802 61.2524C63.6415 61.4645 63.7883 61.752 63.7883 62.0518V110.528C63.7883 110.677 63.8244 110.824 63.8946 110.961C63.9647 111.098 64.0676 111.223 64.1972 111.328C64.3268 111.433 64.4807 111.516 64.65 111.573C64.8194 111.63 65.0009 111.659 65.1841 111.659L202.473 111.621C202.729 111.62 202.98 111.677 203.198 111.785C203.417 111.892 203.595 112.047 203.713 112.231C204.591 113.613 205.12 115.122 205.27 116.672C205.298 116.955 205.457 117.218 205.715 117.411C205.972 117.603 206.309 117.709 206.659 117.709H208.605C208.975 117.709 209.33 117.828 209.592 118.04C209.853 118.252 210 118.54 210 118.84V143.009C210 143.309 209.853 143.597 209.591 143.809C209.33 144.021 208.975 144.14 208.605 144.14H204.674C204.49 144.14 204.309 144.111 204.139 144.054C203.97 143.997 203.816 143.913 203.687 143.808C203.557 143.703 203.454 143.578 203.385 143.441C203.315 143.303 203.279 143.156 203.279 143.007C203.284 140.498 203.288 137.991 203.294 135.486C203.294 135.337 203.258 135.19 203.188 135.053C203.118 134.915 203.016 134.79 202.886 134.685C202.756 134.58 202.603 134.497 202.433 134.44C202.264 134.383 202.082 134.353 201.899 134.353H9.67607C9.49282 134.353 9.3114 134.383 9.14217 134.44C8.97294 134.497 8.81923 134.58 8.68981 134.686C8.56039 134.791 8.45781 134.916 8.38792 135.053C8.31804 135.19 8.28222 135.337 8.28251 135.486V143.013C8.28281 143.161 8.24706 143.308 8.1773 143.445C8.10754 143.583 8.00515 143.707 7.87595 143.812C7.74676 143.918 7.5933 144.001 7.42434 144.058C7.25538 144.115 7.07422 144.144 6.89122 144.145L2.39696 144.154C2.21333 144.154 2.03145 144.125 1.86175 144.068C1.69206 144.011 1.53789 143.928 1.4081 143.822C1.2783 143.717 1.17544 143.592 1.10541 143.454C1.03538 143.317 0.999557 143.169 1 143.02Z" fill="#FFECE5" stroke="black" stroke-width="0.566028" stroke-linecap="round" stroke-linejoin="round"/>
<path d="M180.379 111.628L155.417 111.62C155.16 111.619 154.908 111.676 154.688 111.783C154.468 111.891 154.29 112.046 154.172 112.231C153.296 113.613 152.768 115.122 152.62 116.672C152.591 116.954 152.433 117.218 152.175 117.411C151.918 117.603 151.581 117.709 151.231 117.709H149.285C148.915 117.709 148.56 117.828 148.298 118.04C148.037 118.252 147.89 118.54 147.89 118.84V143.009C147.89 143.309 148.037 143.596 148.299 143.808C148.56 144.02 148.915 144.14 149.285 144.14H153.216C153.4 144.14 153.581 144.111 153.75 144.054C153.92 143.997 154.074 143.913 154.203 143.808C154.333 143.703 154.435 143.578 154.505 143.441C154.575 143.303 154.611 143.156 154.611 143.007C154.606 140.498 154.601 137.991 154.596 135.486C154.596 135.337 154.632 135.19 154.702 135.053C154.772 134.915 154.874 134.79 155.004 134.685C155.133 134.58 155.287 134.496 155.457 134.439C155.626 134.383 155.808 134.353 155.991 134.353H180.379" fill="#FFECE5"/>
<path d="M180.379 111.628L155.417 111.62C155.16 111.619 154.908 111.676 154.688 111.783C154.468 111.891 154.29 112.046 154.172 112.231C153.296 113.613 152.768 115.122 152.62 116.672C152.591 116.954 152.433 117.218 152.175 117.411C151.918 117.603 151.581 117.709 151.231 117.709H149.285C148.915 117.709 148.56 117.828 148.298 118.04C148.037 118.252 147.89 118.54 147.89 118.84V143.009C147.89 143.309 148.037 143.596 148.299 143.808C148.56 144.02 148.915 144.14 149.285 144.14H153.216C153.4 144.14 153.581 144.111 153.75 144.054C153.92 143.997 154.074 143.913 154.203 143.808C154.333 143.703 154.435 143.578 154.505 143.441C154.575 143.303 154.611 143.156 154.611 143.007C154.606 140.498 154.601 137.991 154.596 135.486C154.596 135.337 154.632 135.19 154.702 135.053C154.772 134.915 154.874 134.79 155.004 134.685C155.133 134.58 155.287 134.496 155.457 134.439C155.626 134.383 155.808 134.353 155.991 134.353H180.379" stroke="black" stroke-width="0.566028" stroke-linecap="round" stroke-linejoin="round"/>
<path d="M206.399 117.689L63.7158 117.696L2.96179 99.5959" stroke="black" stroke-width="0.566028" stroke-linecap="round" stroke-linejoin="round"/>
<path d="M2.96179 60.9209V144.139V60.9209Z" fill="#FFECE5"/>
<path d="M2.96179 60.9209V144.139" stroke="black" stroke-width="0.566028" stroke-linecap="round" stroke-linejoin="round"/>
<path d="M65.2814 111.651L2.96179 92.0076L65.2814 111.651Z" fill="#FFECE5"/>
<path d="M65.2814 111.651L2.96179 92.0076" stroke="black" stroke-width="0.566028" stroke-linecap="round" stroke-linejoin="round"/>
<path d="M13.1211 56.5767H59.3089C63.2779 56.5767 66.6333 58.4611 67.1552 60.9826L73.3034 90.6842C73.9328 93.7252 70.2469 96.4266 65.4571 96.4266H19.2693C15.3003 96.4266 11.9449 94.5422 11.423 92.0207L5.27479 62.3154C4.64537 59.2744 8.33587 56.5767 13.1211 56.5767Z" fill="#FFECE5" stroke="black" stroke-width="0.566028" stroke-linecap="round" stroke-linejoin="round"/>
<path d="M37.048 12.9761H35.9703C35.4389 12.9761 35.0081 13.3254 35.0081 13.7563V55.7936C35.0081 56.2245 35.4389 56.5739 35.9703 56.5739H37.048C37.5795 56.5739 38.0103 56.2245 38.0103 55.7936V13.7563C38.0103 13.3254 37.5795 12.9761 37.048 12.9761Z" fill="#FFECE5" stroke="black" stroke-width="0.566028" stroke-linecap="round" stroke-linejoin="round"/>
<path d="M36.7876 86.8454C35.3035 82.5386 33.165 75.334 32.5605 67.3757C32.2696 63.5205 32.2447 58.2242 35.9703 54.5415C36.1084 54.4048 36.225 54.2965 36.2465 54.2772C40.6434 50.2687 47.5353 50.1824 49.4259 50.2081C50.4968 50.0922 51.5854 50.1483 52.6296 50.3733C55.8401 51.0737 57.4589 53.1812 57.8744 53.7411C59.2487 55.5935 59.2272 57.3614 59.2057 59.1256C59.1729 61.8325 58.8661 63.1772 57.168 66.1632C55.4427 69.2106 53.696 74.9007 53.876 86.5352L36.7876 86.8454Z" fill="#111F4A"/>
<path d="M47.4018 72.6903C54.9866 70.1202 64.6091 72.2745 71.261 78.3299C72.0116 78.3951 77.2032 78.911 79.6382 82.3687C80.2468 83.2427 80.6289 84.2081 80.7612 85.206L161.789 89.8047C163.25 86.492 167.041 84.2771 171.185 84.267C174.729 84.2578 178.044 85.8614 179.865 88.4278C180.218 87.7578 181.841 84.8755 185.373 84.0834C185.373 84.0834 187.96 83.5033 191.034 84.6341C196.354 86.5893 198.519 97.472 197.373 111.437H62.4321C57.03 109.041 52.1994 105.881 48.1682 102.107C43.7872 97.9906 34.2247 89.0034 37.9797 80.5063C40.3356 75.1733 46.6456 72.9455 47.4018 72.6903Z" fill="#111F4A"/>
<path d="M78.7088 80.2785C77.0027 80.2159 75.2971 80.4095 73.6779 80.8495C71.9564 81.3311 70.3666 82.0793 68.9969 83.0525C67.5531 83.1245 66.1236 83.3261 64.7347 83.6537C48.2248 87.5585 43.3388 108.259 42.5837 111.658L199.713 111.62C199.976 102.328 200.241 93.0365 200.505 83.7455C193.051 82.7569 187.105 82.0932 183.638 81.7261C121.906 75.153 90.0168 80.5778 78.7088 80.2785Z" fill="white"/>
<path d="M72.6761 78.5266C73.5988 78.7102 78.2142 79.7199 80.0707 83.0702C80.4433 83.7478 80.6803 84.4691 80.7726 85.2071L107.756 86.7391L161.789 89.8049C163.25 86.4922 167.041 84.2773 171.185 84.2672C174.729 84.258 178.044 85.8616 179.865 88.4281C180.293 87.6158 180.883 86.866 181.61 86.2086C182.176 85.6982 183.511 84.4948 185.6 84.0423C188.913 83.3245 191.806 85.0015 192.188 85.2301C194.941 86.8823 195.648 89.5644 196.06 91.4076C197.751 98.973 197.824 107.335 197.751 111.621" stroke="black" stroke-width="0.566028" stroke-linecap="round" stroke-linejoin="round"/>
<path d="M65.86 80.7056C66.4724 80.9864 69.1916 82.3027 70.0859 84.9894C70.9689 87.6404 69.7248 90.5758 66.9162 92.4961" stroke="black" stroke-width="0.566028" stroke-linecap="round" stroke-linejoin="round"/>
<path d="M48.4263 96.6714C46.9245 98.5827 45.6023 100.583 44.4709 102.655C44.1449 103.251 43.843 103.837 43.5653 104.411C42.101 107.422 42.101 110.771 43.5653 113.782C45.9539 118.681 52.8232 122.261 50.7335 128.479C57.639 129.464 69.3365 111.437 69.3365 111.437L48.4263 96.6714Z" fill="white"/>
<path d="M51.5723 104.955L69.3376 111.655" stroke="black" stroke-width="0.566028" stroke-linecap="round" stroke-linejoin="round"/>
<path d="M169.714 86.6838C167.83 87.3937 166.216 88.5008 165.041 89.8896C163.866 91.2783 163.173 92.8975 163.034 94.5778C163.11 98.4128 163.185 102.248 163.261 106.082" stroke="black" stroke-width="0.566028" stroke-linecap="round" stroke-linejoin="round"/>
<path d="M52.3194 87.5613L63.8663 96.6486C65.3708 97.834 67.243 98.6669 69.2844 99.059C71.1462 99.4163 73.0635 99.7578 75.0363 100.083C77.6023 100.506 80.0929 100.873 82.5079 101.185C82.6588 104.601 82.8075 108.018 82.9539 111.435H69.3376C60.3418 108.965 52.1596 104.864 45.4138 99.4427C46.8347 95.1834 49.1725 91.1611 52.3194 87.5613Z" fill="#111F4A"/>
<path d="M82.6654 104.735C84.1198 104.648 85.5791 104.627 87.0363 104.675C90.1449 104.776 93.1494 104.873 96.0169 105.929C97.3459 106.418 100.567 107.818 103.073 111.467L82.9541 111.437L82.6654 104.735Z" fill="#FF9E9F"/>
<path d="M89.1747 108.101C90.434 108.051 91.6943 108.182 92.8969 108.49C95.8221 109.24 97.545 110.831 98.2311 111.549" stroke="black" stroke-width="0.566028" stroke-linecap="round" stroke-linejoin="round"/>
<path d="M47.1041 76.5245C46.5698 74.0884 46.3298 72.0598 45.4343 69.8862C44.8524 70.1497 43.1702 71.0795 41.2231 70.8399C39.1933 70.5894 37.6752 69.7504 37.2699 67.4813C36.9043 65.4307 38.0929 63.7253 39.997 63.057C40.5778 62.8532 41.9397 62.8312 42.32 62.8092C44.8219 62.6761 49.3218 54.6398 49.7712 52.7572C50.983 52.6697 52.204 52.792 53.353 53.1161C54.0741 53.3217 55.9715 53.8871 57.2994 55.4779C57.9722 56.2915 58.3896 57.2261 58.5152 58.2004C58.7269 59.7672 58.9261 61.0909 59.0812 62.0941C59.5544 65.1095 59.7672 65.975 59.2669 67.0931C58.7099 68.335 57.5948 69.1657 56.6835 69.6889L59.0914 75.524C59.0914 76.1812 58.865 76.6255 58.6182 76.9266C57.3231 78.5146 51.7534 77.9519 47.1041 76.5245Z" fill="#FF9E9F"/>
<path d="M57.4589 59.2008C56.876 58.8947 56.1778 58.7665 55.4891 58.8392C55.0941 58.8884 54.7154 59.0019 54.3758 59.1727C54.0361 59.3435 53.7425 59.5682 53.5126 59.8333C53.5952 60.1955 53.7281 60.549 53.9088 60.887C54.3503 61.6941 55.0417 62.3948 55.9159 62.9211L55.1382 64.1245" stroke="black" stroke-width="0.566028" stroke-linecap="round" stroke-linejoin="round"/>
<path d="M56.8953 65.8711C56.9383 66.5283 55.487 68.4972 52.0206 66.6173" stroke="black" stroke-width="0.566028" stroke-linecap="round" stroke-linejoin="round"/>
<path d="M51.0537 59.9039C50.228 59.5801 49.2925 59.4895 48.3959 59.6463C47.4993 59.8031 46.6931 60.1985 46.1055 60.7695" stroke="black" stroke-width="0.566028" stroke-linecap="round" stroke-linejoin="round"/>
<path d="M39.2578 65.9226L42.9608 66.5349L41.3091 69.0398" stroke="black" stroke-width="0.566028" stroke-linecap="round" stroke-linejoin="round"/>
<path d="M37.15 36.6848H28.0652C27.884 36.6848 27.7047 36.6541 27.539 36.5947C27.3732 36.5352 27.2246 36.4484 27.1027 36.3397C26.9808 36.2309 26.8882 36.1028 26.8309 35.9633C26.7737 35.8239 26.753 35.6763 26.7701 35.53L28.4105 21.4861C28.4409 21.2247 28.5905 20.9819 28.83 20.8051C29.0695 20.6284 29.3817 20.5305 29.7056 20.5305H38.7892C38.9704 20.5305 39.1496 20.5612 39.3154 20.6206C39.4812 20.68 39.6298 20.7669 39.7517 20.8756C39.8736 20.9843 39.9662 21.1125 40.0235 21.2519C40.0807 21.3914 40.1014 21.539 40.0842 21.6852L38.445 35.7292C38.4143 35.9905 38.2647 36.2332 38.0252 36.4099C37.7858 36.5866 37.4737 36.6846 37.15 36.6848Z" fill="#FFECE5"/>
<path d="M28.0177 26.2168H39.3383C39.0055 29.3909 38.6723 32.5653 38.3387 35.7401C38.3062 35.8955 38.2286 36.0424 38.1123 36.1687C37.9593 36.3324 37.749 36.4549 37.5089 36.5203L27.9237 36.5965C27.7626 36.5774 27.6078 36.5325 27.4684 36.4642C27.329 36.396 27.2078 36.3058 27.112 36.199C26.9526 36.011 26.8793 35.7837 26.9049 35.5565C27.2762 32.443 27.6471 29.3297 28.0177 26.2168Z" fill="#6BCBB8"/>
<path d="M37.15 36.6848H28.0652C27.884 36.6848 27.7047 36.6541 27.539 36.5947C27.3732 36.5352 27.2246 36.4484 27.1027 36.3397C26.9808 36.2309 26.8882 36.1028 26.8309 35.9633C26.7737 35.8239 26.753 35.6763 26.7701 35.53L28.4105 21.4861C28.4409 21.2247 28.5905 20.9819 28.83 20.8051C29.0695 20.6284 29.3817 20.5305 29.7056 20.5305H38.7892C38.9704 20.5305 39.1496 20.5612 39.3154 20.6206C39.4812 20.68 39.6298 20.7669 39.7517 20.8756C39.8736 20.9843 39.9662 21.1125 40.0235 21.2519C40.0807 21.3914 40.1014 21.539 40.0842 21.6852L38.445 35.7292C38.4143 35.9905 38.2647 36.2332 38.0252 36.4099C37.7858 36.5866 37.4737 36.6846 37.15 36.6848V36.6848Z" stroke="black" stroke-width="0.566028" stroke-linecap="round" stroke-linejoin="round"/>
<path d="M29.4779 22.4304L39.9947 22.4543L29.4779 22.4304Z" fill="#FFECE5"/>
<path d="M29.4779 22.4304L39.9947 22.4543" stroke="black" stroke-width="0.566028" stroke-linecap="round" stroke-linejoin="round"/>
<path d="M34.5088 21.3906C34.5088 21.4754 34.4777 21.5582 34.4197 21.6287C34.3616 21.6992 34.279 21.7542 34.1824 21.7866C34.0858 21.819 33.9795 21.8275 33.8769 21.811C33.7744 21.7945 33.6802 21.7536 33.6063 21.6937C33.5323 21.6337 33.482 21.5574 33.4616 21.4742C33.4412 21.391 33.4516 21.3049 33.4917 21.2265C33.5317 21.1482 33.5994 21.0813 33.6864 21.0342C33.7733 20.9871 33.8755 20.9619 33.9801 20.9619C34.1203 20.9619 34.2548 21.0071 34.3539 21.0875C34.4531 21.1679 34.5088 21.2769 34.5088 21.3906Z" fill="#FFECE5" stroke="black" stroke-width="0.566028" stroke-linecap="round" stroke-linejoin="round"/>
<path d="M33.2512 19.6152C32.9217 20.0742 32.9206 20.6103 33.2512 20.982C33.4328 21.179 33.6888 21.3224 33.9802 21.3905" stroke="black" stroke-width="0.566028" stroke-linecap="round" stroke-linejoin="round"/>
<path d="M31.4897 80.9512C31.7908 83.637 34.5372 91.966 38.316 93.8734C32.9953 92.794 26.2698 87.561 26.2698 87.561" fill="#FFECE5"/>
<path d="M31.4897 80.9512C31.7908 83.637 34.5372 91.966 38.316 93.8734C32.9953 92.794 26.2698 87.561 26.2698 87.561" stroke="black" stroke-width="0.566028" stroke-linecap="round" stroke-linejoin="round"/>
</svg>
