<svg width="370" height="525" viewBox="0 0 370 525" fill="none" xmlns="http://www.w3.org/2000/svg">
<path d="M441.331 0H117.982C99.2183 0 84.0068 15.2114 84.0068 33.9756V490.694C84.0068 509.459 99.2183 524.67 117.982 524.67H441.331C460.095 524.67 475.307 509.459 475.307 490.694V33.9756C475.307 15.2114 460.095 0 441.331 0Z" fill="#111F4A"/>
<path d="M367.38 358.948H191.928C184.529 358.948 178.531 364.946 178.531 372.345V391.274C178.531 398.673 184.529 404.671 191.928 404.671H367.38C374.779 404.671 380.777 398.673 380.777 391.274V372.345C380.777 364.946 374.779 358.948 367.38 358.948Z" fill="#6BCBB8"/>
<path d="M282.896 418.666H188.608C183.043 418.666 178.531 423.178 178.531 428.743V454.313C178.531 459.878 183.043 464.389 188.608 464.389H282.896C288.461 464.389 292.972 459.878 292.972 454.313V428.743C292.972 423.178 288.461 418.666 282.896 418.666Z" fill="#6BCBB8"/>
<path d="M279.66 312.374C358.039 312.374 421.577 248.835 421.577 170.456C421.577 92.0769 358.039 28.5381 279.66 28.5381C201.28 28.5381 137.742 92.0769 137.742 170.456C137.742 248.835 201.28 312.374 279.66 312.374Z" fill="#6BCBB8"/>
<path d="M21.9453 215.753C25.8165 220.85 30.7064 225.085 36.3036 228.189C50.2469 235.864 64.0379 233.789 68.5298 232.917C72.4946 216.105 76.4628 199.293 80.4346 182.482L54.5182 157.789C43.6606 177.109 32.8029 196.43 21.9453 215.753Z" fill="#FF9E9F"/>
<path d="M81.9508 175.831L155.193 197.579L156.274 197.9L156.883 196.951C162.607 188.023 169.692 180.046 177.881 173.307C208.217 148.483 248.306 146.217 282.42 150.864C316.496 155.506 344.288 167.004 349.711 169.324L349.715 169.326C358.068 172.865 365.588 178.112 371.794 184.728C373.443 186.502 379.087 192.754 385.064 206.205C391.073 219.871 394.709 234.461 395.817 249.347C391.493 255.331 386.749 261.001 381.621 266.313L381.617 266.317C373.121 275.189 363.573 282.991 353.187 289.549C340.436 297.338 326.517 303.029 311.962 306.405L311.96 306.405C268.034 316.636 232.137 302.362 223.227 298.549C211.438 293.492 200.388 286.864 190.376 278.845L190.062 278.595L189.666 278.534C180.587 277.137 171.246 275.452 161.645 273.478C128.152 266.445 95.445 256.088 64.0104 242.561L81.9508 175.831Z" fill="white" stroke="black" stroke-width="3"/>
<path d="M401.728 242.878C388.887 264.529 370.516 282.373 348.501 294.58C326.487 306.787 301.62 312.918 276.454 312.342C230.458 311.265 199.225 287.965 189.438 280.016" stroke="black" stroke-width="2.62684" stroke-linecap="round" stroke-linejoin="round"/>
<path d="M349.077 208.513L329.501 303.311" stroke="black" stroke-width="2.62684" stroke-linecap="round" stroke-linejoin="round"/>
<path d="M200.922 194.04C197.094 222.697 193.266 251.356 189.438 280.016" stroke="black" stroke-width="2.62684" stroke-linecap="round" stroke-linejoin="round"/>
<path d="M285.507 53.677C276.926 61.2083 269.622 70.0792 263.877 79.9454C262.124 76.5819 261.423 72.7691 261.865 69.002C262.152 66.7281 262.865 64.5286 263.967 62.519L285.507 53.677Z" fill="#292929"/>
<path d="M265.191 221.884C261.867 203.843 258.54 185.805 255.209 167.771L296.361 178.279L265.191 221.884Z" fill="#6BCBB8"/>
<path d="M264.14 132.571C261.16 144.301 258.183 156.034 255.209 167.771C267.489 175.16 281.568 179.019 295.899 178.925L307.394 160.589C308.623 150.548 309.849 140.508 311.071 130.47C314.825 131.073 318.669 130.772 322.283 129.593C323.15 129.304 333.725 125.584 337.34 114.53C338.07 112.297 341.196 102.746 335.065 95.2702C329.407 88.3669 320.355 88.7294 319.304 88.7872L282.528 54.4648C275.892 59.1237 270.338 65.1568 266.242 72.154C261.771 79.8769 260.689 88.6243 258.535 106.124C257.51 114.478 257.179 121.444 260.988 128.19C261.877 129.76 262.934 131.229 264.14 132.571Z" fill="#FF9E9F"/>
<path d="M265.364 85.9873C268.91 84.7917 272.766 84.892 276.245 86.2704C279.724 87.6487 282.602 90.2159 284.367 93.5158C281.121 98.8602 276.939 103.576 272.021 107.438L277.537 113.044" stroke="black" stroke-width="2.62684" stroke-linecap="round" stroke-linejoin="round"/>
<path d="M292.92 94.3352C293.619 94.0831 298.699 92.3231 303.658 95.2704C306.274 96.8654 308.224 99.3529 309.149 102.274" stroke="black" stroke-width="2.62684" stroke-linecap="round" stroke-linejoin="round"/>
<path d="M269.22 119.668C270.212 121.513 271.607 123.109 273.302 124.339C278.262 127.89 283.952 126.803 285.097 126.556" stroke="black" stroke-width="2.62684" stroke-linecap="round" stroke-linejoin="round"/>
<path d="M327.479 105.541L318.369 110.212L325.608 116.984" stroke="black" stroke-width="2.62684" stroke-linecap="round" stroke-linejoin="round"/>
<path d="M280.469 55.9991C282.412 61.7361 287.687 74.6182 300.743 84.7631C306.846 89.4897 313.802 92.9965 321.232 95.0918C325.984 93.8524 331.005 94.1466 335.58 95.9324C337.678 91.8167 338.818 87.2801 338.916 82.6616C339.158 65.4873 323.801 54.5176 320.88 52.5369C319.341 51.4862 301.567 39.865 282.003 47.8086C272.021 51.854 266.357 59.0463 263.967 62.5189L276.922 57.2653L280.469 55.9991Z" fill="#292929"/>
<path d="M309.028 157.963C302.051 168.918 294.752 179.993 287.13 191.187C270.087 216.2 252.892 239.521 235.828 261.287L222.852 300.338" stroke="black" stroke-width="2.62684" stroke-linecap="round" stroke-linejoin="round"/>
<path d="M235.828 261.287L306.521 213.825L302.14 189.837L319.13 199.467L321.526 157.789" stroke="black" stroke-width="2.62684" stroke-linecap="round" stroke-linejoin="round"/>
<path d="M244.891 147.702L231.042 186.506L251.179 185.455L233.143 200.344L253.396 238.386" stroke="black" stroke-width="2.62684" stroke-linecap="round" stroke-linejoin="round"/>
<path d="M47.8145 133.969H15.7723C7.88885 133.969 1.49805 140.36 1.49805 148.243V206.381C1.49805 214.264 7.88885 220.655 15.7723 220.655H47.8145C55.698 220.655 62.0888 214.264 62.0888 206.381V148.243C62.0888 140.36 55.698 133.969 47.8145 133.969Z" fill="#6BCBB8"/>
<path d="M48.9072 121.029H14.6848C12.7465 121.029 11.1753 122.601 11.1753 124.539V130.985C11.1753 132.923 12.7465 134.494 14.6848 134.494H48.9072C50.8455 134.494 52.4167 132.923 52.4167 130.985V124.539C52.4167 122.601 50.8455 121.029 48.9072 121.029Z" fill="#111F4A"/>
<path d="M0.404544 156.098L40.1644 155.977L40.3956 202.325L0 202.561C0.133093 187.073 0.267948 171.586 0.404544 156.098Z" fill="#111F4A"/>
<path d="M49.38 141.382C46.6271 141.382 44.2419 146.315 43.4276 149.557C40.2754 162.06 54.0821 174.827 56.6196 177.107C54.8274 181.12 53.8352 185.444 53.6985 189.837C53.3781 201.311 59.1677 209.543 61.2902 212.28L77.5188 180.144C76.3298 175.336 74.2715 170.787 71.4455 166.72C66.2601 159.365 62.5142 159.623 56.8508 151.542C52.611 145.501 51.8913 141.371 49.38 141.382Z" fill="#FF9E9F"/>
</svg>
