<svg width="163" height="100" viewBox="0 0 163 100" fill="none" xmlns="http://www.w3.org/2000/svg">
<path d="M125.105 1.64495C100.426 1.97075 74.6069 12.3962 61.0864 33.8986C60.272 35.2018 59.4575 36.6679 58.8059 38.0525C58.2357 39.3557 56.7697 39.9258 55.4665 39.3557C54.2448 38.7856 53.6746 37.3195 54.1633 36.0977C54.652 35.1204 55.1407 34.3873 55.6294 33.5728C66.3806 16.6315 85.1953 5.71738 104.661 2.37799C111.422 1.15626 118.263 0.749013 125.024 0.911911C125.268 0.911911 125.431 1.07481 125.431 1.31915C125.512 1.4006 125.349 1.5635 125.105 1.64495Z" fill="#111F4A"/>
<path d="M107.512 15.0842C95.6206 38.7043 68.824 50.3514 43.3305 50.6772C41.9459 50.6772 40.8056 49.6184 40.8056 48.2338C40.7242 46.8491 41.9459 45.6274 43.3305 45.7089C67.928 46.6862 94.0731 36.831 106.779 14.7584C106.942 14.2697 107.756 14.514 107.512 15.0842Z" fill="#111F4A"/>
<path d="M62.308 36.7497C62.308 36.7497 62.2265 36.7497 62.308 36.7497C62.308 36.6682 62.3894 36.5868 62.3894 36.5868C63.6112 35.9352 65.5659 34.5506 66.7062 33.7361C72.5705 29.6636 79.4122 25.3469 85.1136 21.193C89.7562 18.0165 95.0504 15.7359 100.589 14.5956C102.055 14.5142 97.0866 18.831 96.8422 19.1567C93.9915 21.6002 90.9779 23.7993 87.6385 25.4283C85.9281 26.2428 84.2177 26.9758 82.5887 27.8718C77.9461 30.2338 72.1633 33.003 67.4393 35.1207C66.1361 35.6908 63.937 36.6682 62.5523 37.0755C62.3894 37.0755 62.2265 37.2384 61.9822 37.0755C61.8193 36.994 62.0636 36.5868 62.308 36.7497Z" fill="#111F4A"/>
<path d="M5.43528 76.966C4.49153 76.966 3.57691 76.832 2.69142 76.5641C1.81758 76.2961 1.12434 75.9407 0.611687 75.498L1.39814 73.7328C1.89914 74.129 2.51083 74.4552 3.2332 74.7115C3.96723 74.9562 4.70125 75.0785 5.43528 75.0785C6.34407 75.0785 7.01984 74.9329 7.46258 74.6416C7.91698 74.3503 8.14418 73.9658 8.14418 73.4881C8.14418 73.1386 8.01601 72.8532 7.75969 72.6318C7.51501 72.3988 7.20043 72.2182 6.81594 72.09C6.43145 71.9618 5.90715 71.8162 5.24303 71.6531C4.31094 71.4317 3.55361 71.2103 2.97105 70.989C2.40014 70.7676 1.90497 70.4239 1.48553 69.9578C1.07773 69.4801 0.873839 68.8393 0.873839 68.0354C0.873839 67.3596 1.05443 66.7479 1.41562 66.2003C1.78846 65.6411 2.34189 65.1983 3.07591 64.8721C3.82159 64.5459 4.73038 64.3828 5.80229 64.3828C6.54796 64.3828 7.28199 64.476 8.00436 64.6624C8.72674 64.8488 9.35007 65.1168 9.87438 65.4663L9.15783 67.2315C8.62187 66.9169 8.06262 66.678 7.48006 66.5149C6.8975 66.3518 6.33242 66.2702 5.78481 66.2702C4.88767 66.2702 4.21773 66.4217 3.77498 66.7246C3.34389 67.0276 3.12834 67.4295 3.12834 67.9305C3.12834 68.2801 3.25068 68.5655 3.49535 68.7869C3.75168 69.0083 4.07209 69.183 4.45658 69.3112C4.84107 69.4394 5.36537 69.585 6.02949 69.7481C6.93828 69.9578 7.68395 70.1792 8.26651 70.4122C8.84907 70.6336 9.34425 70.9773 9.75204 71.4434C10.1715 71.9094 10.3812 72.5386 10.3812 73.3309C10.3812 74.0066 10.1948 74.6183 9.82195 75.1659C9.46076 75.7135 8.90733 76.1504 8.16165 76.4767C7.41598 76.8029 6.50719 76.966 5.43528 76.966ZM25.3985 73.96H19.2817L18.0758 76.7913H15.7339L21.2391 64.5575H23.4761L28.9987 76.7913H26.6219L25.3985 73.96ZM24.647 72.1774L22.3401 66.8295L20.0506 72.1774H24.647ZM35.3846 64.5575H37.6566V74.8688H44.0531V76.7913H35.3846V64.5575ZM55.9373 76.966C54.2479 76.966 52.9313 76.4942 51.9875 75.5504C51.0438 74.595 50.5719 73.2318 50.5719 71.4608V64.5575H52.8439V71.3735C52.8439 73.7736 53.8808 74.9737 55.9548 74.9737C58.017 74.9737 59.0481 73.7736 59.0481 71.3735V64.5575H61.2852V71.4608C61.2852 73.2318 60.8133 74.595 59.8695 75.5504C58.9375 76.4942 57.6267 76.966 55.9373 76.966ZM77.9655 70.4297C78.6413 70.6511 79.1772 71.0239 79.5734 71.5482C79.9695 72.0609 80.1676 72.7017 80.1676 73.4707C80.1676 74.5309 79.7598 75.3523 78.9442 75.9349C78.1286 76.5058 76.9402 76.7913 75.379 76.7913H69.297V64.5575H75.0294C76.4742 64.5575 77.5869 64.843 78.3675 65.4139C79.1481 65.9731 79.5384 66.7479 79.5384 67.7383C79.5384 68.3442 79.3986 68.8801 79.119 69.3462C78.8394 69.8122 78.4549 70.1734 77.9655 70.4297ZM71.569 66.3401V69.7132H74.7848C75.577 69.7132 76.1829 69.5734 76.6023 69.2937C77.0334 69.0024 77.249 68.583 77.249 68.0354C77.249 67.4761 77.0334 67.0567 76.6023 66.7771C76.1829 66.4858 75.577 66.3401 74.7848 66.3401H71.569ZM75.2391 75.0086C76.9985 75.0086 77.8781 74.4202 77.8781 73.2435C77.8781 72.0667 76.9985 71.4783 75.2391 71.4783H71.569V75.0086H75.2391ZM95.4267 76.7913L92.9275 73.2085C92.8227 73.2202 92.6654 73.226 92.4557 73.226H89.6943V76.7913H87.4224V64.5575H92.4557C93.5159 64.5575 94.4364 64.7323 95.217 65.0818C96.0093 65.4314 96.6151 65.9324 97.0346 66.5848C97.454 67.2373 97.6638 68.0121 97.6638 68.9092C97.6638 69.8297 97.4366 70.622 96.9822 71.2861C96.5394 71.9502 95.8986 72.4454 95.0597 72.7716L97.8735 76.7913H95.4267ZM95.3743 68.9092C95.3743 68.1286 95.118 67.5286 94.6053 67.1091C94.0927 66.6897 93.3412 66.48 92.3508 66.48H89.6943V71.356H92.3508C93.3412 71.356 94.0927 71.1463 94.6053 70.7268C95.118 70.2957 95.3743 69.6899 95.3743 68.9092ZM105.036 64.5575H107.308V76.7913H105.036V64.5575ZM121.162 76.966C119.915 76.966 118.791 76.6981 117.789 76.1621C116.787 75.6145 116 74.863 115.429 73.9076C114.858 72.9405 114.573 71.8628 114.573 70.6744C114.573 69.486 114.858 68.4141 115.429 67.4587C116 66.4916 116.787 65.7401 117.789 65.2042C118.791 64.6566 119.915 64.3828 121.162 64.3828C122.408 64.3828 123.533 64.6566 124.535 65.2042C125.537 65.7401 126.323 66.4858 126.894 67.4412C127.465 68.3966 127.75 69.4743 127.75 70.6744C127.75 71.8745 127.465 72.9522 126.894 73.9076C126.323 74.863 125.537 75.6145 124.535 76.1621C123.533 76.6981 122.408 76.966 121.162 76.966ZM121.162 74.9737C121.977 74.9737 122.711 74.7931 123.364 74.4319C124.016 74.0591 124.529 73.5464 124.902 72.8939C125.274 72.2298 125.461 71.49 125.461 70.6744C125.461 69.8588 125.274 69.1248 124.902 68.4723C124.529 67.8082 124.016 67.2955 123.364 66.9344C122.711 66.5615 121.977 66.3751 121.162 66.3751C120.346 66.3751 119.612 66.5615 118.959 66.9344C118.307 67.2955 117.794 67.8082 117.422 68.4723C117.049 69.1248 116.862 69.8588 116.862 70.6744C116.862 71.49 117.049 72.2298 117.422 72.8939C117.794 73.5464 118.307 74.0591 118.959 74.4319C119.612 74.7931 120.346 74.9737 121.162 74.9737ZM140.249 76.966C138.56 76.966 137.243 76.4942 136.299 75.5504C135.356 74.595 134.884 73.2318 134.884 71.4608V64.5575H137.156V71.3735C137.156 73.7736 138.193 74.9737 140.267 74.9737C142.329 74.9737 143.36 73.7736 143.36 71.3735V64.5575H145.597V71.4608C145.597 73.2318 145.125 74.595 144.181 75.5504C143.249 76.4942 141.938 76.966 140.249 76.966ZM157.401 76.966C156.458 76.966 155.543 76.832 154.657 76.5641C153.784 76.2961 153.09 75.9407 152.578 75.498L153.364 73.7328C153.865 74.129 154.477 74.4552 155.199 74.7115C155.933 74.9562 156.667 75.0785 157.401 75.0785C158.31 75.0785 158.986 74.9329 159.429 74.6416C159.883 74.3503 160.11 73.9658 160.11 73.4881C160.11 73.1386 159.982 72.8532 159.726 72.6318C159.481 72.3988 159.166 72.2182 158.782 72.09C158.397 71.9618 157.873 71.8162 157.209 71.6531C156.277 71.4317 155.52 71.2103 154.937 70.989C154.366 70.7676 153.871 70.4239 153.452 69.9578C153.044 69.4801 152.84 68.8393 152.84 68.0354C152.84 67.3596 153.02 66.7479 153.382 66.2003C153.754 65.6411 154.308 65.1983 155.042 64.8721C155.788 64.5459 156.696 64.3828 157.768 64.3828C158.514 64.3828 159.248 64.476 159.97 64.6624C160.693 64.8488 161.316 65.1168 161.84 65.4663L161.124 67.2315C160.588 66.9169 160.029 66.678 159.446 66.5149C158.864 66.3518 158.298 66.2702 157.751 66.2702C156.854 66.2702 156.184 66.4217 155.741 66.7246C155.31 67.0276 155.094 67.4295 155.094 67.9305C155.094 68.2801 155.217 68.5655 155.461 68.7869C155.718 69.0083 156.038 69.183 156.423 69.3112C156.807 69.4394 157.331 69.585 157.995 69.7481C158.904 69.9578 159.65 70.1792 160.233 70.4122C160.815 70.6336 161.31 70.9773 161.718 71.4434C162.137 71.9094 162.347 72.5386 162.347 73.3309C162.347 74.0066 162.161 74.6183 161.788 75.1659C161.427 75.7135 160.873 76.1504 160.128 76.4767C159.382 76.8029 158.473 76.966 157.401 76.966Z" fill="#111F4A"/>
<path d="M29.5114 96.9658V90.3448H30.0884L33.1151 95.5092H32.8125L35.8108 90.3448H36.3878V96.9658H35.7163V91.3947H35.8771L33.1151 96.124H32.7841L30.0032 91.3947H30.183V96.9658H29.5114ZM40.5125 97.0131C39.9955 97.0131 39.5414 96.9059 39.1505 96.6915C38.7595 96.4708 38.4537 96.1713 38.233 95.7929C38.0123 95.4083 37.9019 94.97 37.9019 94.4782C37.9019 93.9863 38.006 93.5513 38.2141 93.1729C38.4285 92.7946 38.7185 92.4982 39.0843 92.2838C39.4563 92.0631 39.8725 91.9527 40.3328 91.9527C40.7994 91.9527 41.2125 92.0599 41.5719 92.2743C41.9376 92.4824 42.2245 92.7788 42.4326 93.1634C42.6407 93.5418 42.7448 93.98 42.7448 94.4782C42.7448 94.5097 42.7416 94.5444 42.7353 94.5822C42.7353 94.6138 42.7353 94.6485 42.7353 94.6863H38.4127V94.185H42.3759L42.111 94.3836C42.111 94.0242 42.0322 93.7057 41.8746 93.4283C41.7232 93.1445 41.5151 92.9238 41.2503 92.7662C40.9855 92.6085 40.6796 92.5297 40.3328 92.5297C39.9923 92.5297 39.6865 92.6085 39.4153 92.7662C39.1442 92.9238 38.9329 93.1445 38.7816 93.4283C38.6303 93.712 38.5546 94.0368 38.5546 94.4025V94.5066C38.5546 94.8849 38.6366 95.2191 38.8005 95.5092C38.9708 95.7929 39.2041 96.0168 39.5005 96.1808C39.8031 96.3384 40.1468 96.4172 40.5314 96.4172C40.8341 96.4172 41.1147 96.3636 41.3733 96.2564C41.6381 96.1492 41.8651 95.9853 42.0543 95.7646L42.4326 96.1997C42.2119 96.4645 41.9345 96.6663 41.6003 96.805C41.2724 96.9438 40.9098 97.0131 40.5125 97.0131ZM46.0885 97.0131C45.6156 97.0131 45.19 96.9059 44.8116 96.6915C44.4396 96.4771 44.1464 96.1808 43.932 95.8024C43.7176 95.4178 43.6104 94.9764 43.6104 94.4782C43.6104 93.9737 43.7176 93.5323 43.932 93.154C44.1464 92.7756 44.4396 92.4824 44.8116 92.2743C45.19 92.0599 45.6156 91.9527 46.0885 91.9527C46.5236 91.9527 46.9114 92.0505 47.252 92.246C47.5988 92.4414 47.8731 92.7284 48.0749 93.1067C48.2829 93.4787 48.387 93.9359 48.387 94.4782C48.387 95.0142 48.2861 95.4714 48.0843 95.8497C47.8825 96.228 47.6082 96.5181 47.2614 96.7199C46.9209 96.9154 46.5299 97.0131 46.0885 97.0131ZM46.1358 96.4172C46.489 96.4172 46.8042 96.3384 47.0817 96.1808C47.3655 96.0168 47.5862 95.7898 47.7438 95.4997C47.9078 95.2034 47.9897 94.8628 47.9897 94.4782C47.9897 94.0872 47.9078 93.7467 47.7438 93.4567C47.5862 93.1666 47.3655 92.9427 47.0817 92.7851C46.8042 92.6212 46.489 92.5392 46.1358 92.5392C45.789 92.5392 45.4769 92.6212 45.1994 92.7851C44.922 92.9427 44.7013 93.1666 44.5373 93.4567C44.3734 93.7467 44.2914 94.0872 44.2914 94.4782C44.2914 94.8628 44.3734 95.2034 44.5373 95.4997C44.7013 95.7898 44.922 96.0168 45.1994 96.1808C45.4769 96.3384 45.789 96.4172 46.1358 96.4172ZM48.0086 96.9658V95.4714L48.0749 94.4687L47.9803 93.4661V89.9475H48.6518V96.9658H48.0086ZM50.5221 96.9658V92H51.1937V96.9658H50.5221ZM50.8626 90.9028C50.7239 90.9028 50.6073 90.8555 50.5127 90.761C50.4181 90.6664 50.3708 90.5529 50.3708 90.4204C50.3708 90.288 50.4181 90.1777 50.5127 90.0894C50.6073 89.9948 50.7239 89.9475 50.8626 89.9475C51.0014 89.9475 51.118 89.9917 51.2126 90.0799C51.3072 90.1682 51.3545 90.2786 51.3545 90.411C51.3545 90.5497 51.3072 90.6664 51.2126 90.761C51.1243 90.8555 51.0077 90.9028 50.8626 90.9028ZM55.1243 97.0131C54.6324 97.0131 54.191 96.9059 53.8001 96.6915C53.4154 96.4708 53.1127 96.1713 52.892 95.7929C52.6713 95.4083 52.561 94.97 52.561 94.4782C52.561 93.98 52.6713 93.5418 52.892 93.1634C53.1127 92.7851 53.4154 92.4887 53.8001 92.2743C54.191 92.0599 54.6324 91.9527 55.1243 91.9527C55.5468 91.9527 55.9283 92.0347 56.2688 92.1987C56.6093 92.3626 56.8773 92.6085 57.0728 92.9364L56.5714 93.277C56.4012 93.0247 56.1899 92.8387 55.9377 92.7189C55.6855 92.5991 55.4112 92.5392 55.1148 92.5392C54.7617 92.5392 54.4433 92.6212 54.1595 92.7851C53.8757 92.9427 53.6519 93.1666 53.4879 93.4567C53.324 93.7467 53.242 94.0872 53.242 94.4782C53.242 94.8692 53.324 95.2097 53.4879 95.4997C53.6519 95.7898 53.8757 96.0168 54.1595 96.1808C54.4433 96.3384 54.7617 96.4172 55.1148 96.4172C55.4112 96.4172 55.6855 96.3573 55.9377 96.2375C56.1899 96.1177 56.4012 95.9348 56.5714 95.6889L57.0728 96.0294C56.8773 96.351 56.6093 96.5969 56.2688 96.7672C55.9283 96.9311 55.5468 97.0131 55.1243 97.0131ZM61.5039 96.9658V95.8686L61.4755 95.6889V93.8539C61.4755 93.4314 61.3557 93.1067 61.1161 92.8797C60.8828 92.6527 60.5328 92.5392 60.0662 92.5392C59.7446 92.5392 59.4388 92.5928 59.1487 92.7C58.8586 92.8072 58.6127 92.9491 58.4109 93.1256L58.1083 92.6243C58.3605 92.4099 58.6632 92.246 59.0163 92.1325C59.3694 92.0126 59.7414 91.9527 60.1324 91.9527C60.7756 91.9527 61.2706 92.1135 61.6174 92.4351C61.9705 92.7504 62.1471 93.2328 62.1471 93.8823V96.9658H61.5039ZM59.7919 97.0131C59.4199 97.0131 59.0951 96.9532 58.8177 96.8334C58.5465 96.7073 58.3384 96.537 58.1934 96.3226C58.0483 96.1019 57.9758 95.8497 57.9758 95.5659C57.9758 95.3074 58.0357 95.0741 58.1555 94.866C58.2817 94.6516 58.4834 94.4814 58.7609 94.3552C59.0447 94.2228 59.423 94.1566 59.8959 94.1566H61.6079V94.6579H59.9149C59.4356 94.6579 59.1014 94.743 58.9122 94.9133C58.7294 95.0836 58.6379 95.2948 58.6379 95.547C58.6379 95.8308 58.7483 96.0578 58.969 96.228C59.1897 96.3983 59.4987 96.4834 59.8959 96.4834C60.2743 96.4834 60.599 96.3983 60.8702 96.228C61.1476 96.0515 61.3494 95.7993 61.4755 95.4714L61.6269 95.9348C61.5008 96.2627 61.28 96.5244 60.9648 96.7199C60.6558 96.9154 60.2648 97.0131 59.7919 97.0131ZM63.9711 96.9658V89.9475H64.6427V96.9658H63.9711ZM69.1287 96.9658V90.3448H71.6068C72.168 90.3448 72.6504 90.4362 73.054 90.6191C73.4576 90.7956 73.7666 91.0542 73.981 91.3947C74.2017 91.7289 74.312 92.1356 74.312 92.6148C74.312 93.0815 74.2017 93.485 73.981 93.8256C73.7666 94.1598 73.4576 94.4183 73.054 94.6012C72.6504 94.784 72.168 94.8755 71.6068 94.8755H69.5165L69.8286 94.5444V96.9658H69.1287ZM69.8286 94.6012L69.5165 94.2606H71.5879C72.25 94.2606 72.7513 94.1188 73.0918 93.835C73.4387 93.5449 73.6121 93.1382 73.6121 92.6148C73.6121 92.0852 73.4387 91.6753 73.0918 91.3852C72.7513 91.0952 72.25 90.9501 71.5879 90.9501H69.5165L69.8286 90.6191V94.6012ZM75.5543 96.9658V92H76.1975V93.3526L76.1312 93.1162C76.27 92.7378 76.5033 92.4509 76.8312 92.2554C77.1591 92.0536 77.5658 91.9527 78.0513 91.9527V92.6054C78.0261 92.6054 78.0009 92.6054 77.9757 92.6054C77.9505 92.5991 77.9252 92.5959 77.9 92.5959C77.3766 92.5959 76.9668 92.7567 76.6704 93.0783C76.374 93.3936 76.2258 93.8445 76.2258 94.4309V96.9658H75.5543ZM82.0192 96.9658V95.8686L81.9908 95.6889V93.8539C81.9908 93.4314 81.871 93.1067 81.6314 92.8797C81.3981 92.6527 81.0481 92.5392 80.5815 92.5392C80.2599 92.5392 79.954 92.5928 79.664 92.7C79.3739 92.8072 79.128 92.9491 78.9262 93.1256L78.6235 92.6243C78.8758 92.4099 79.1784 92.246 79.5316 92.1325C79.8847 92.0126 80.2567 91.9527 80.6477 91.9527C81.2909 91.9527 81.7859 92.1135 82.1327 92.4351C82.4858 92.7504 82.6624 93.2328 82.6624 93.8823V96.9658H82.0192ZM80.3072 97.0131C79.9351 97.0131 79.6104 96.9532 79.3329 96.8334C79.0618 96.7073 78.8537 96.537 78.7086 96.3226C78.5636 96.1019 78.4911 95.8497 78.4911 95.5659C78.4911 95.3074 78.551 95.0741 78.6708 94.866C78.7969 94.6516 78.9987 94.4814 79.2762 94.3552C79.5599 94.2228 79.9383 94.1566 80.4112 94.1566H82.1232V94.6579H80.4301C79.9509 94.6579 79.6167 94.743 79.4275 94.9133C79.2446 95.0836 79.1532 95.2948 79.1532 95.547C79.1532 95.8308 79.2636 96.0578 79.4843 96.228C79.705 96.3983 80.0139 96.4834 80.4112 96.4834C80.7895 96.4834 81.1143 96.3983 81.3854 96.228C81.6629 96.0515 81.8647 95.7993 81.9908 95.4714L82.1421 95.9348C82.016 96.2627 81.7953 96.5244 81.48 96.7199C81.171 96.9154 80.7801 97.0131 80.3072 97.0131ZM86.5484 97.0131C86.0565 97.0131 85.6151 96.9059 85.2242 96.6915C84.8395 96.4708 84.5368 96.1713 84.3161 95.7929C84.0954 95.4083 83.9851 94.97 83.9851 94.4782C83.9851 93.98 84.0954 93.5418 84.3161 93.1634C84.5368 92.7851 84.8395 92.4887 85.2242 92.2743C85.6151 92.0599 86.0565 91.9527 86.5484 91.9527C86.9709 91.9527 87.3524 92.0347 87.6929 92.1987C88.0334 92.3626 88.3014 92.6085 88.4969 92.9364L87.9956 93.277C87.8253 93.0247 87.6141 92.8387 87.3618 92.7189C87.1096 92.5991 86.8353 92.5392 86.5389 92.5392C86.1858 92.5392 85.8674 92.6212 85.5836 92.7851C85.2998 92.9427 85.076 93.1666 84.912 93.4567C84.7481 93.7467 84.6661 94.0872 84.6661 94.4782C84.6661 94.8692 84.7481 95.2097 84.912 95.4997C85.076 95.7898 85.2998 96.0168 85.5836 96.1808C85.8674 96.3384 86.1858 96.4172 86.5389 96.4172C86.8353 96.4172 87.1096 96.3573 87.3618 96.2375C87.6141 96.1177 87.8253 95.9348 87.9956 95.6889L88.4969 96.0294C88.3014 96.351 88.0334 96.5969 87.6929 96.7672C87.3524 96.9311 86.9709 97.0131 86.5484 97.0131ZM91.4417 97.0131C90.9751 97.0131 90.6156 96.887 90.3634 96.6348C90.1112 96.3825 89.985 96.0263 89.985 95.5659V90.9028H90.6566V95.5281C90.6566 95.8182 90.7291 96.042 90.8742 96.1997C91.0255 96.3573 91.2399 96.4361 91.5173 96.4361C91.8137 96.4361 92.0596 96.351 92.2551 96.1808L92.4916 96.6631C92.3592 96.783 92.1984 96.8712 92.0092 96.928C91.8263 96.9847 91.6372 97.0131 91.4417 97.0131ZM89.0959 92.5581V92H92.17V92.5581H89.0959ZM93.7141 96.9658V92H94.3857V96.9658H93.7141ZM94.0546 90.9028C93.9159 90.9028 93.7992 90.8555 93.7047 90.761C93.6101 90.6664 93.5628 90.5529 93.5628 90.4204C93.5628 90.288 93.6101 90.1777 93.7047 90.0894C93.7992 89.9948 93.9159 89.9475 94.0546 89.9475C94.1934 89.9475 94.31 89.9917 94.4046 90.0799C94.4992 90.1682 94.5465 90.2786 94.5465 90.411C94.5465 90.5497 94.4992 90.6664 94.4046 90.761C94.3163 90.8555 94.1997 90.9028 94.0546 90.9028ZM97.8244 97.0131C97.3578 97.0131 96.9984 96.887 96.7461 96.6348C96.4939 96.3825 96.3678 96.0263 96.3678 95.5659V90.9028H97.0393V95.5281C97.0393 95.8182 97.1119 96.042 97.2569 96.1997C97.4082 96.3573 97.6226 96.4361 97.9001 96.4361C98.1965 96.4361 98.4424 96.351 98.6379 96.1808L98.8743 96.6631C98.7419 96.783 98.5811 96.8712 98.3919 96.928C98.2091 96.9847 98.0199 97.0131 97.8244 97.0131ZM95.4787 92.5581V92H98.5527V92.5581H95.4787ZM100.097 96.9658V92H100.768V96.9658H100.097ZM100.437 90.9028C100.299 90.9028 100.182 90.8555 100.087 90.761C99.9928 90.6664 99.9455 90.5529 99.9455 90.4204C99.9455 90.288 99.9928 90.1777 100.087 90.0894C100.182 89.9948 100.299 89.9475 100.437 89.9475C100.576 89.9475 100.693 89.9917 100.787 90.0799C100.882 90.1682 100.929 90.2786 100.929 90.411C100.929 90.5497 100.882 90.6664 100.787 90.761C100.699 90.8555 100.582 90.9028 100.437 90.9028ZM104.661 97.0131C104.182 97.0131 103.75 96.9059 103.365 96.6915C102.987 96.4708 102.687 96.1713 102.467 95.7929C102.246 95.4083 102.136 94.97 102.136 94.4782C102.136 93.98 102.246 93.5418 102.467 93.1634C102.687 92.7851 102.987 92.4887 103.365 92.2743C103.744 92.0599 104.176 91.9527 104.661 91.9527C105.153 91.9527 105.588 92.0599 105.966 92.2743C106.351 92.4887 106.651 92.7851 106.865 93.1634C107.086 93.5418 107.196 93.98 107.196 94.4782C107.196 94.97 107.086 95.4083 106.865 95.7929C106.651 96.1713 106.351 96.4708 105.966 96.6915C105.582 96.9059 105.147 97.0131 104.661 97.0131ZM104.661 96.4172C105.021 96.4172 105.339 96.3384 105.616 96.1808C105.894 96.0168 106.111 95.7898 106.269 95.4997C106.433 95.2034 106.515 94.8628 106.515 94.4782C106.515 94.0872 106.433 93.7467 106.269 93.4567C106.111 93.1666 105.894 92.9427 105.616 92.7851C105.339 92.6212 105.024 92.5392 104.671 92.5392C104.317 92.5392 104.002 92.6212 103.725 92.7851C103.447 92.9427 103.227 93.1666 103.063 93.4567C102.899 93.7467 102.817 94.0872 102.817 94.4782C102.817 94.8628 102.899 95.2034 103.063 95.4997C103.227 95.7898 103.447 96.0168 103.725 96.1808C104.002 96.3384 104.314 96.4172 104.661 96.4172ZM111.102 91.9527C111.506 91.9527 111.859 92.0316 112.161 92.1892C112.47 92.3405 112.71 92.5739 112.88 92.8891C113.057 93.2044 113.145 93.6017 113.145 94.0809V96.9658H112.474V94.1471C112.474 93.6238 112.341 93.2297 112.076 92.9648C111.818 92.6937 111.452 92.5581 110.979 92.5581C110.626 92.5581 110.317 92.6306 110.052 92.7756C109.794 92.9144 109.592 93.1193 109.447 93.3905C109.308 93.6553 109.239 93.9769 109.239 94.3552V96.9658H108.567V92H109.21V93.3621L109.106 93.1067C109.264 92.7473 109.516 92.4667 109.863 92.2649C110.21 92.0568 110.623 91.9527 111.102 91.9527ZM117.068 97.0131C116.551 97.0131 116.097 96.9059 115.706 96.6915C115.315 96.4708 115.01 96.1713 114.789 95.7929C114.568 95.4083 114.458 94.97 114.458 94.4782C114.458 93.9863 114.562 93.5513 114.77 93.1729C114.984 92.7946 115.274 92.4982 115.64 92.2838C116.012 92.0631 116.428 91.9527 116.889 91.9527C117.355 91.9527 117.768 92.0599 118.128 92.2743C118.493 92.4824 118.78 92.7788 118.988 93.1634C119.197 93.5418 119.301 93.98 119.301 94.4782C119.301 94.5097 119.297 94.5444 119.291 94.5822C119.291 94.6138 119.291 94.6485 119.291 94.6863H114.969V94.185H118.932L118.667 94.3836C118.667 94.0242 118.588 93.7057 118.43 93.4283C118.279 93.1445 118.071 92.9238 117.806 92.7662C117.541 92.6085 117.235 92.5297 116.889 92.5297C116.548 92.5297 116.242 92.6085 115.971 92.7662C115.7 92.9238 115.489 93.1445 115.337 93.4283C115.186 93.712 115.11 94.0368 115.11 94.4025V94.5066C115.11 94.8849 115.192 95.2191 115.356 95.5092C115.527 95.7929 115.76 96.0168 116.056 96.1808C116.359 96.3384 116.703 96.4172 117.087 96.4172C117.39 96.4172 117.671 96.3636 117.929 96.2564C118.194 96.1492 118.421 95.9853 118.61 95.7646L118.988 96.1997C118.768 96.4645 118.49 96.6663 118.156 96.805C117.828 96.9438 117.466 97.0131 117.068 97.0131ZM120.668 96.9658V92H121.311V93.3526L121.245 93.1162C121.383 92.7378 121.617 92.4509 121.944 92.2554C122.272 92.0536 122.679 91.9527 123.165 91.9527V92.6054C123.139 92.6054 123.114 92.6054 123.089 92.6054C123.064 92.5991 123.039 92.5959 123.013 92.5959C122.49 92.5959 122.08 92.7567 121.784 93.0783C121.487 93.3936 121.339 93.8445 121.339 94.4309V96.9658H120.668ZM125.779 97.0131C125.369 97.0131 124.981 96.9564 124.616 96.8429C124.25 96.723 123.963 96.5749 123.755 96.3983L124.058 95.8686C124.259 96.02 124.518 96.1524 124.833 96.2659C125.149 96.3731 125.48 96.4267 125.826 96.4267C126.299 96.4267 126.64 96.3542 126.848 96.2091C127.056 96.0578 127.16 95.8592 127.16 95.6132C127.16 95.4304 127.1 95.2885 126.98 95.1876C126.867 95.0804 126.716 95.0016 126.526 94.9511C126.337 94.8944 126.126 94.8471 125.893 94.8093C125.659 94.7714 125.426 94.7273 125.193 94.6768C124.966 94.6264 124.758 94.5539 124.568 94.4593C124.379 94.3584 124.225 94.2228 124.105 94.0526C123.991 93.8823 123.935 93.6553 123.935 93.3715C123.935 93.1004 124.01 92.8576 124.162 92.6432C124.313 92.4288 124.534 92.2617 124.824 92.1419C125.12 92.0158 125.48 91.9527 125.902 91.9527C126.224 91.9527 126.545 91.9969 126.867 92.0852C127.188 92.1671 127.453 92.2775 127.661 92.4162L127.368 92.9554C127.147 92.804 126.911 92.6968 126.659 92.6338C126.407 92.5644 126.154 92.5297 125.902 92.5297C125.454 92.5297 125.123 92.6085 124.909 92.7662C124.701 92.9175 124.597 93.113 124.597 93.3526C124.597 93.5418 124.654 93.69 124.767 93.7972C124.887 93.9044 125.041 93.9895 125.231 94.0526C125.426 94.1093 125.637 94.1566 125.864 94.1944C126.098 94.2323 126.328 94.2796 126.555 94.3363C126.788 94.3868 126.999 94.4593 127.188 94.5539C127.384 94.6421 127.538 94.7714 127.652 94.9417C127.772 95.1056 127.832 95.3232 127.832 95.5943C127.832 95.8844 127.75 96.1366 127.586 96.351C127.428 96.5591 127.195 96.723 126.886 96.8429C126.583 96.9564 126.214 97.0131 125.779 97.0131Z" fill="#111F4A"/>
</svg>
