<?xml version="1.0" encoding="utf-8"?>
<!-- Generator: Adobe Illustrator 26.0.3, SVG Export Plug-In . SVG Version: 6.00 Build 0)  -->
<svg version="1.1" id="Layer_1" xmlns="http://www.w3.org/2000/svg" xmlns:xlink="http://www.w3.org/1999/xlink" x="0px" y="0px"
	 viewBox="0 0 200 200" style="enable-background:new 0 0 200 200;" xml:space="preserve">
<g>
	<path d="M79.7,53.7c0,0-41.2-41.9,15-43.4C83.5,14.8,61.7,17.1,79.7,53.7z"/>
	<path d="M86.2,76.3c0,0,43.5,21.5,0.1,37.9C93.7,107.7,110.1,100,86.2,76.3z"/>
	<path d="M62.4,27.7c0,0-1.5,25.3,42.2,41.3s1.5,53.6-25.6,49.1c0,0,43.7-13.6,28.6-30.1S33.8,56.4,62.4,27.7z"/>
</g>
<g>
	<g>
		<path d="M6.3,164.3c-1.8,0-3.1-0.3-3.9-0.8c-0.8-0.5-1.2-1-1.2-1.6c0-0.3,0.1-0.7,0.2-1.1c0.1-0.4,0.3-0.8,0.6-1.2
			c0.4,0.4,1,0.7,1.6,1c0.7,0.3,1.5,0.4,2.4,0.4c1.4,0,2.4-0.4,3-1.1c0.6-0.7,0.9-1.7,0.9-2.9c0-0.9-0.2-1.7-0.5-2.5
			C9,153.9,8.5,153,7.6,152l-3.9-4.6c-0.9-1.1-1.5-2.1-1.9-3c-0.4-0.9-0.6-1.8-0.6-2.7c0-1.6,0.6-3,1.7-4c1.2-1,2.8-1.6,5-1.6
			c1.9,0,3.2,0.2,3.9,0.6c0.8,0.4,1.2,0.8,1.2,1.4c0,0.3-0.1,0.6-0.2,0.9c-0.1,0.3-0.3,0.6-0.6,0.9c-0.3-0.2-0.7-0.4-1.4-0.6
			c-0.7-0.2-1.5-0.3-2.4-0.3c-1.2,0-2.1,0.2-2.8,0.7c-0.7,0.5-1,1.1-1,2c0,0.7,0.2,1.3,0.5,1.9c0.3,0.6,0.8,1.2,1.3,1.9l4.2,4.8
			c1,1.2,1.7,2.3,2.1,3.3c0.4,1,0.5,2.1,0.5,3.3c0,1.3-0.2,2.5-0.6,3.6s-1.1,2-2.2,2.7C9.5,164,8.1,164.3,6.3,164.3z"/>
		<path d="M22.6,164c-0.2,0-0.5,0-0.9,0c-0.4,0-0.7-0.1-1.1-0.1l7-26.9c0.1-0.4,0.5-0.5,1.2-0.5c0.3,0,0.5,0,0.8,0
			c0.3,0,0.5,0.1,0.7,0.1l7,26.8c0.1,0.2,0,0.4-0.2,0.5c-0.2,0.1-0.6,0.2-1.2,0.2c-0.2,0-0.5,0-0.8,0c-0.3,0-0.7,0-1.1-0.1
			l-3.7-15.4c-0.2-0.9-0.4-1.8-0.6-2.7c-0.2-0.9-0.3-1.8-0.5-2.6c-0.1-0.8-0.2-1.6-0.3-2.2c-0.1,0.6-0.2,1.4-0.3,2.2
			c-0.1,0.8-0.3,1.7-0.5,2.6c-0.2,0.9-0.4,1.8-0.6,2.7l-3.5,14.9c-0.1,0.2-0.2,0.4-0.3,0.5S23.2,164,22.6,164z M24.6,157v-2.9H34
			v2.9H24.6z"/>
		<path d="M45.3,164v-26.5c0-0.3,0.1-0.5,0.2-0.6c0.1-0.1,0.4-0.2,0.8-0.2c0.4,0,1.2,0,2.2,0V161h6.7v2.3c0,0.3-0.1,0.4-0.2,0.5
			c-0.1,0.1-0.3,0.1-0.4,0.1H45.3z"/>
		<path d="M70.8,164.3c-1.6,0-2.8-0.2-3.8-0.7c-0.9-0.4-1.6-1-2.1-1.8c-0.5-0.8-0.8-1.7-0.9-2.7c-0.2-1-0.2-2.1-0.2-3.2v-18.7
			c0-0.2,0.1-0.4,0.2-0.5c0.1-0.1,0.4-0.1,0.8-0.2c0.4,0,1.2,0,2.3,0v19.5c0,0.8,0,1.5,0.1,2.2s0.3,1.2,0.5,1.7
			c0.3,0.5,0.7,0.8,1.2,1.1c0.5,0.3,1.1,0.4,2,0.4c0.7,0,1.4-0.1,2-0.2c0.6-0.1,1.1-0.3,1.4-0.5v-23.5c0-0.2,0.1-0.4,0.2-0.5
			c0.1-0.1,0.4-0.1,0.8-0.2c0.4,0,1.2,0,2.2,0v26.4c-0.5,0.3-1.3,0.6-2.5,0.9C73.8,164.2,72.4,164.3,70.8,164.3z"/>
		<path d="M87.1,164v-26.6c0-0.2,0.1-0.4,0.2-0.5c0.1-0.1,0.4-0.2,0.8-0.2H92c0.8,0,1.6,0.1,2.3,0.3c0.8,0.2,1.5,0.5,2.1,0.9
			c0.6,0.4,1.1,1,1.5,1.8s0.6,1.8,0.6,3.1c0,1.4-0.2,2.6-0.6,3.5s-0.9,1.6-1.4,2c-0.6,0.5-1.1,0.7-1.7,0.8c0.4,0,0.9,0.1,1.5,0.3
			c0.5,0.2,1,0.5,1.5,0.9c0.5,0.4,0.9,1,1.2,1.7c0.3,0.7,0.4,1.7,0.4,2.9c0,1.3-0.1,2.5-0.4,3.5c-0.2,1-0.6,1.9-1.1,2.6
			c-0.5,0.7-1,1.3-1.6,1.8c-0.6,0.5-1.3,0.8-2,1.1S92.8,164,92,164H87.1z M90.3,147.8h1.9c0.5,0,1-0.2,1.5-0.5s0.8-0.8,1-1.5
			c0.2-0.7,0.4-1.5,0.4-2.6c0-1.1-0.1-1.9-0.4-2.4c-0.3-0.5-0.6-0.9-1.1-1.1c-0.4-0.2-0.9-0.3-1.4-0.3h-1.9V147.8z M90.3,161.2h1.8
			c0.5,0,1-0.1,1.4-0.4c0.4-0.2,0.8-0.6,1.2-1.1c0.3-0.5,0.6-1.2,0.8-1.9c0.2-0.8,0.3-1.7,0.3-2.9c0-1-0.1-1.8-0.3-2.4
			c-0.2-0.6-0.4-1-0.7-1.3c-0.3-0.3-0.7-0.5-1.2-0.6c-0.4-0.1-0.9-0.1-1.4-0.1h-1.8V161.2z"/>
		<path d="M107.9,164v-26.8c0.1-0.4,0.4-0.6,0.7-0.6h1.9c0.3,0,0.5,0.2,0.6,0.6v26.1c0,0.2,0,0.4-0.1,0.4c-0.1,0.1-0.4,0.1-0.8,0.2
			C109.7,163.9,109,164,107.9,164z M109,152.8c-0.4,0-0.6-0.1-0.6-0.2c0-0.1,0-0.4,0-0.7v-14.7c0-0.1,0-0.2,0-0.4
			c0-0.2,0.2-0.3,0.4-0.3h3.6c1.6,0,3,0.3,4.1,0.8c1.1,0.5,1.9,1.4,2.4,2.5c0.5,1.1,0.8,2.6,0.8,4.4c0,1.6-0.2,3-0.6,4
			c-0.4,1.1-0.9,1.9-1.6,2.6c-0.7,0.7-1.4,1.1-2.3,1.4c-0.9,0.3-1.8,0.5-2.7,0.5H109z M111,149.9h1.8c0.7,0,1.3-0.2,1.8-0.6
			c0.5-0.4,0.9-1,1.1-1.8c0.3-0.8,0.4-2,0.4-3.3c0-1-0.1-1.9-0.3-2.6c-0.2-0.7-0.5-1.3-1-1.7s-1.1-0.6-1.9-0.6h-2V149.9z M118.3,164
			c-0.2,0-0.5,0-0.8,0c-0.3,0-0.7,0-1-0.1c-0.1-2.2-0.4-4.1-0.8-5.7s-0.8-2.7-1.3-3.6c-0.5-0.9-1-1.7-1.7-2.5
			c-0.1-0.3,0-0.5,0.2-0.7l1.7-0.9c0.3,0,0.5,0.1,0.7,0.4c0.8,0.9,1.5,1.9,2.1,2.9s1.1,2.3,1.6,3.9c0.5,1.6,0.8,3.4,0.9,5.6
			c0,0.3-0.1,0.5-0.2,0.6S119.1,164,118.3,164z"/>
		<path d="M128.7,164V138c0-0.5,0.1-0.8,0.2-1c0.1-0.2,0.4-0.3,0.8-0.4s1.2-0.1,2.2-0.1v26.8c0,0.2-0.1,0.4-0.2,0.4
			c-0.1,0.1-0.4,0.1-0.8,0.2C130.5,163.9,129.8,164,128.7,164z"/>
		<path d="M148,164.3c-1.3,0-2.4-0.2-3.3-0.6c-0.9-0.4-1.6-1.2-2.2-2.2c-0.6-1.1-1-2.5-1.2-4.4c-0.3-1.8-0.4-4.2-0.4-7
			c0-3.5,0.3-6.2,0.8-8.3c0.5-2,1.4-3.5,2.5-4.4c1.1-0.9,2.5-1.3,4.2-1.3c1.3,0,2.3,0.2,3.2,0.7c0.9,0.5,1.6,1.2,2.2,2.3
			s0.9,2.5,1.2,4.2s0.4,4,0.4,6.6c0,3.6-0.3,6.4-0.8,8.5c-0.5,2.1-1.3,3.6-2.4,4.5C151.1,163.9,149.7,164.3,148,164.3z M148.1,161.1
			c1,0,1.7-0.4,2.2-1.1c0.5-0.7,0.9-1.9,1.2-3.5c0.2-1.6,0.4-3.8,0.4-6.4c0-2.6-0.1-4.7-0.3-6.2c-0.2-1.6-0.6-2.7-1.1-3.3
			s-1.2-1-2.2-1c-0.9,0-1.7,0.4-2.2,1.1c-0.6,0.7-1,1.9-1.3,3.6c-0.3,1.7-0.4,3.9-0.4,6.7c0,2.4,0.1,4.4,0.3,5.9
			c0.2,1.5,0.6,2.6,1.1,3.3C146.5,160.7,147.2,161.1,148.1,161.1z"/>
		<path d="M171.5,164.3c-1.6,0-2.8-0.2-3.8-0.7c-0.9-0.4-1.6-1-2.1-1.8c-0.5-0.8-0.8-1.7-0.9-2.7s-0.2-2.1-0.2-3.2v-18.7
			c0-0.2,0.1-0.4,0.2-0.5s0.4-0.1,0.8-0.2c0.4,0,1.2,0,2.3,0v19.5c0,0.8,0,1.5,0.1,2.2s0.3,1.2,0.5,1.7c0.3,0.5,0.7,0.8,1.2,1.1
			c0.5,0.3,1.1,0.4,2,0.4c0.7,0,1.4-0.1,2-0.2s1.1-0.3,1.4-0.5v-23.5c0-0.2,0.1-0.4,0.2-0.5c0.1-0.1,0.4-0.1,0.8-0.2
			c0.4,0,1.2,0,2.2,0v26.4c-0.5,0.3-1.3,0.6-2.5,0.9S173,164.3,171.5,164.3z"/>
		<path d="M192.1,164.3c-1.8,0-3.1-0.3-3.9-0.8c-0.8-0.5-1.2-1-1.2-1.6c0-0.3,0.1-0.7,0.2-1.1c0.1-0.4,0.3-0.8,0.6-1.2
			c0.4,0.4,1,0.7,1.6,1c0.7,0.3,1.5,0.4,2.4,0.4c1.4,0,2.4-0.4,3-1.1c0.6-0.7,0.9-1.7,0.9-2.9c0-0.9-0.2-1.7-0.5-2.5
			s-0.9-1.6-1.8-2.6l-3.9-4.6c-0.9-1.1-1.5-2.1-1.9-3c-0.4-0.9-0.6-1.8-0.6-2.7c0-1.6,0.6-3,1.7-4s2.8-1.6,5-1.6
			c1.9,0,3.2,0.2,4,0.6c0.8,0.4,1.2,0.8,1.2,1.4c0,0.3-0.1,0.6-0.2,0.9c-0.1,0.3-0.3,0.6-0.6,0.9c-0.3-0.2-0.7-0.4-1.4-0.6
			c-0.7-0.2-1.5-0.3-2.4-0.3c-1.2,0-2.1,0.2-2.8,0.7c-0.7,0.5-1,1.1-1,2c0,0.7,0.2,1.3,0.5,1.9c0.3,0.6,0.8,1.2,1.3,1.9l4.2,4.8
			c1,1.2,1.7,2.3,2.1,3.3s0.5,2.1,0.5,3.3c0,1.3-0.2,2.5-0.6,3.6c-0.4,1.1-1.1,2-2.2,2.7S193.9,164.3,192.1,164.3z"/>
	</g>
</g>
<g>
	<g>
		<path d="M38.4,185v-13.3c0-0.1,0-0.2,0.1-0.3c0.1,0,0.1,0,0.2,0h1.1l0.1,2.5l-0.4,0.6c0,0.4,0.1,0.7,0.1,1c0,0.3,0,0.7,0.1,1
			s0.1,0.8,0.1,1.2c0,0.4,0.1,0.8,0.1,1.3c0,0.4,0,0.8,0,1.1l0,4.5c0,0.1,0,0.2-0.1,0.2c-0.1,0-0.2,0.1-0.4,0.1S38.9,185,38.4,185z
			 M41.8,182l-1-3.1c0-0.1-0.1-0.3-0.2-0.6c-0.1-0.3-0.2-0.7-0.3-1.1c-0.1-0.4-0.2-0.8-0.4-1.3c-0.1-0.4-0.2-0.9-0.3-1.2
			c-0.1-0.4-0.2-0.8-0.4-1.3l0.6-1.9l1.8,5.9c0.1,0.2,0.1,0.4,0.2,0.7c0.1,0.2,0.1,0.5,0.2,0.7c0.1,0.2,0.1,0.5,0.2,0.8
			c0.1-0.3,0.1-0.6,0.2-0.8c0.1-0.2,0.1-0.5,0.2-0.7c0.1-0.2,0.1-0.4,0.2-0.6l1.7-5.6l0.7,1.7c-0.1,0.5-0.2,0.9-0.3,1.3
			s-0.2,0.8-0.3,1.2c-0.1,0.4-0.2,0.9-0.4,1.3c-0.1,0.4-0.2,0.8-0.3,1.1s-0.2,0.5-0.2,0.6l-1,2.9c0,0.1-0.1,0.2-0.2,0.2H41.8z
			 M44.6,185l0.1-4.7c0-0.3,0-0.7,0-1.1c0-0.4,0-0.8,0.1-1.3c0-0.4,0.1-0.9,0.1-1.3s0.1-0.8,0.1-1.1s0.1-0.7,0.1-1.1l-0.4-0.4v-2.3
			c0-0.1,0.1-0.2,0.1-0.2c0-0.1,0.1-0.1,0.2-0.1c0.4,0,0.7,0,0.9,0c0.2,0,0.3,0,0.4,0v13.3c0,0.1,0,0.2-0.1,0.2c0,0-0.2,0.1-0.4,0.1
			S45.1,185,44.6,185z"/>
		<path d="M50.7,185.2c-0.4,0-0.8-0.1-1.2-0.2s-0.7-0.3-1-0.7s-0.5-0.8-0.6-1.4c-0.1-0.6-0.2-1.4-0.2-2.3c0-1.2,0.1-2.2,0.3-2.9
			c0.2-0.7,0.5-1.3,0.8-1.7c0.3-0.4,0.7-0.6,1.1-0.8c0.4-0.1,0.8-0.2,1.3-0.2c0.8,0,1.4,0.3,1.8,0.8c0.4,0.5,0.6,1.3,0.6,2.3
			c0,0.4,0,0.9,0,1.3c0,0.5-0.1,0.9-0.2,1.2c-0.4,0.1-0.9,0.2-1.5,0.2c-0.5,0-1.1,0.1-1.6,0.1s-1.1,0-1.7,0l0-1.3c0.5,0,0.9,0,1.3,0
			c0.4,0,0.7,0,1.1-0.1c0.4,0,0.7-0.1,0.9-0.2c0-0.2,0.1-0.4,0.1-0.6c0-0.2,0-0.4,0-0.6c0-0.7-0.1-1.2-0.2-1.5
			c-0.1-0.3-0.4-0.4-0.9-0.4c-0.2,0-0.4,0.1-0.6,0.2s-0.4,0.3-0.5,0.6c-0.2,0.3-0.3,0.7-0.4,1.3c-0.1,0.5-0.1,1.2-0.1,2
			c0,0.6,0,1.1,0.1,1.5c0.1,0.4,0.2,0.7,0.3,0.9s0.3,0.4,0.6,0.5c0.2,0.1,0.5,0.1,0.8,0.1c0.4,0,0.8-0.1,1.2-0.2
			c0.4-0.1,0.7-0.3,1-0.4c0.1,0.2,0.1,0.3,0.1,0.5s0,0.4,0,0.5c0,0.2-0.1,0.4-0.4,0.5c-0.2,0.2-0.6,0.3-1,0.4
			C51.7,185.2,51.2,185.2,50.7,185.2z"/>
		<path d="M57.8,185.2c-0.4,0-0.8,0-1.2-0.1c-0.4-0.1-0.7-0.3-1-0.6c-0.3-0.3-0.5-0.8-0.7-1.4s-0.2-1.5-0.2-2.5
			c0-1.3,0.1-2.3,0.4-3.1c0.3-0.8,0.6-1.4,1.1-1.7c0.4-0.4,0.9-0.5,1.5-0.5c0.3,0,0.6,0,0.8,0.1c0.2,0.1,0.4,0.2,0.6,0.3v-4
			c0-0.2,0-0.4,0.1-0.5c0.1-0.1,0.2-0.2,0.5-0.2c0.2,0,0.6,0,1,0v13.9c-0.3,0.2-0.7,0.3-1.2,0.4C58.9,185.2,58.4,185.2,57.8,185.2z
			 M57.8,183.8c0.2,0,0.4,0,0.6-0.1s0.4-0.1,0.5-0.2v-6.7c-0.1-0.1-0.2-0.2-0.4-0.2s-0.3,0-0.5,0c-0.2,0-0.4,0.1-0.6,0.2
			c-0.2,0.1-0.4,0.3-0.6,0.6c-0.2,0.3-0.3,0.7-0.4,1.2c-0.1,0.5-0.1,1.1-0.1,1.9c0,0.7,0,1.3,0.1,1.8c0.1,0.5,0.2,0.8,0.3,1
			c0.1,0.2,0.3,0.4,0.5,0.5C57.4,183.8,57.6,183.8,57.8,183.8z"/>
		<path d="M63.1,174c-0.2,0-0.4-0.1-0.6-0.3c-0.1-0.2-0.2-0.5-0.2-0.9c0-0.3,0.1-0.6,0.2-0.8c0.1-0.2,0.4-0.3,0.7-0.3
			c0.3,0,0.5,0.1,0.6,0.3s0.2,0.5,0.2,0.9c0,0.4-0.1,0.7-0.2,0.9C63.6,173.9,63.4,174,63.1,174z M62.3,185v-9c0-0.2,0-0.4,0.1-0.5
			s0.3-0.2,0.5-0.2c0.2,0,0.6,0,1,0v9.4c0,0.1,0,0.2-0.1,0.2c0,0-0.2,0.1-0.4,0.1S62.8,185,62.3,185z"/>
		<path d="M68.3,185.2c-0.5,0-0.9-0.1-1.3-0.2s-0.7-0.4-0.9-0.7c-0.2-0.3-0.4-0.8-0.6-1.5c-0.1-0.6-0.2-1.5-0.2-2.5
			c0-1.2,0.1-2.1,0.3-2.8c0.2-0.7,0.5-1.2,0.8-1.6c0.3-0.4,0.7-0.6,1.1-0.7c0.4-0.1,0.8-0.2,1.2-0.2c0.5,0,0.8,0.1,1.1,0.2
			c0.3,0.2,0.5,0.4,0.5,0.6c0,0.1,0,0.2,0,0.4c0,0.2-0.1,0.3-0.1,0.5c-0.2-0.1-0.4-0.2-0.6-0.2c-0.2-0.1-0.5-0.1-0.8-0.1
			c-0.2,0-0.4,0-0.7,0.1c-0.2,0.1-0.4,0.3-0.6,0.5c-0.2,0.3-0.3,0.6-0.5,1.2c-0.1,0.5-0.2,1.2-0.2,2.1c0,0.7,0,1.3,0.1,1.7
			c0.1,0.4,0.2,0.8,0.3,1c0.1,0.3,0.3,0.4,0.5,0.5c0.2,0.1,0.5,0.2,0.8,0.2c0.3,0,0.6,0,0.9-0.1c0.3-0.1,0.5-0.2,0.7-0.3
			c0.1,0.2,0.1,0.3,0.1,0.5s0,0.3,0,0.4c0,0.3-0.2,0.5-0.6,0.7C69.5,185.1,68.9,185.2,68.3,185.2z"/>
		<path d="M74.2,185.2c-0.4,0-0.7,0-1-0.1c-0.3-0.1-0.6-0.2-0.9-0.4c-0.3-0.2-0.5-0.5-0.6-0.9s-0.2-0.9-0.2-1.6s0.1-1.2,0.2-1.6
			c0.1-0.4,0.3-0.7,0.6-1c0.2-0.2,0.5-0.4,0.8-0.5c0.3-0.1,0.6-0.1,0.9-0.1c0.2,0,0.4,0,0.7,0.1c0.3,0,0.5,0.1,0.7,0.2
			c0-0.4,0-0.7,0-0.9s0-0.4,0-0.6c0-0.3,0-0.5-0.1-0.7c-0.1-0.2-0.2-0.3-0.4-0.3s-0.4-0.1-0.6-0.1c-0.5,0-1,0-1.5,0.1
			c-0.5,0.1-0.8,0.2-1.1,0.3c-0.1-0.2-0.1-0.3-0.2-0.5c0-0.2,0-0.3,0-0.4c0-0.1,0-0.2,0-0.3s0.1-0.2,0.2-0.2c0.2-0.1,0.5-0.2,1-0.3
			c0.5-0.1,1.2-0.2,1.9-0.2c0.8,0,1.5,0.2,1.8,0.5c0.4,0.3,0.6,1,0.6,1.8v1c0,0.7,0,1.5,0,2.2c0,0.7,0,1.4,0,2.1
			c0,0.7,0,1.2-0.1,1.7c-0.3,0.2-0.6,0.3-1.1,0.4C75.4,185.1,74.8,185.2,74.2,185.2z M74.4,183.9c0.2,0,0.4,0,0.6-0.1
			c0.2-0.1,0.3-0.1,0.4-0.2c0-0.2,0-0.5,0-0.9c0-0.4,0-0.7,0-1.1c0-0.4,0-0.8,0-1.1c-0.1-0.1-0.3-0.1-0.5-0.1c-0.2,0-0.3,0-0.5,0
			c-0.2,0-0.4,0-0.6,0.1c-0.2,0-0.3,0.1-0.5,0.3c-0.1,0.1-0.2,0.3-0.3,0.6s-0.1,0.6-0.1,1c0,0.3,0,0.6,0.1,0.9s0.1,0.4,0.3,0.5
			s0.3,0.2,0.4,0.2S74.2,183.9,74.4,183.9z"/>
		<path d="M78.6,185v-13.5c0-0.2,0-0.4,0.1-0.5c0.1-0.1,0.2-0.2,0.5-0.2c0.2,0,0.6,0,1,0v13.9c0,0.1,0,0.2-0.1,0.2
			c0,0-0.2,0.1-0.4,0.1C79.5,185,79.1,185,78.6,185z"/>
		<path d="M85,185v-13.3c0-0.1,0-0.2,0.1-0.2c0-0.1,0.1-0.1,0.3-0.1h0.9c0.2,0,0.3,0.1,0.3,0.3v13c0,0.1,0,0.2-0.1,0.2
			c0,0-0.2,0.1-0.4,0.1C85.9,185,85.5,185,85,185z M85.5,179.5c-0.2,0-0.3,0-0.3-0.1c0-0.1,0-0.2,0-0.3v-7.3c0,0,0-0.1,0-0.2
			c0-0.1,0.1-0.2,0.2-0.2h1.8c0.8,0,1.5,0.1,2,0.4c0.5,0.3,0.9,0.7,1.2,1.2c0.3,0.6,0.4,1.3,0.4,2.2c0,0.8-0.1,1.5-0.3,2
			c-0.2,0.5-0.4,1-0.8,1.3s-0.7,0.6-1.1,0.7c-0.4,0.1-0.9,0.2-1.4,0.2H85.5z M86.5,178.1h0.9c0.4,0,0.7-0.1,0.9-0.3
			c0.2-0.2,0.4-0.5,0.6-0.9c0.1-0.4,0.2-1,0.2-1.7c0-0.5,0-0.8-0.1-1.2c-0.1-0.3-0.2-0.6-0.5-0.8c-0.2-0.2-0.5-0.3-0.9-0.3h-1V178.1
			z"/>
		<path d="M92,185v-9c0.4-0.3,0.8-0.5,1.2-0.6c0.5-0.2,0.9-0.2,1.4-0.2c0.5,0,0.9,0.1,1.1,0.2c0.2,0.1,0.3,0.3,0.3,0.6
			c0,0.1,0,0.2,0,0.4c0,0.2-0.1,0.3-0.1,0.5c-0.1-0.1-0.3-0.1-0.4-0.2c-0.2,0-0.3-0.1-0.5-0.1c-0.2,0-0.4,0-0.7,0.1
			s-0.4,0.2-0.6,0.3l0,7.6c0,0.1,0,0.2-0.1,0.2c0,0-0.2,0.1-0.4,0.1C92.9,185,92.5,185,92,185z"/>
		<path d="M99.6,185.2c-0.4,0-0.7,0-1-0.1c-0.3-0.1-0.6-0.2-0.9-0.4c-0.3-0.2-0.5-0.5-0.6-0.9s-0.2-0.9-0.2-1.6s0.1-1.2,0.2-1.6
			c0.1-0.4,0.3-0.7,0.6-1c0.2-0.2,0.5-0.4,0.8-0.5c0.3-0.1,0.6-0.1,0.9-0.1c0.2,0,0.4,0,0.7,0.1c0.3,0,0.5,0.1,0.7,0.2
			c0-0.4,0-0.7,0-0.9s0-0.4,0-0.6c0-0.3,0-0.5-0.1-0.7c-0.1-0.2-0.2-0.3-0.4-0.3s-0.4-0.1-0.6-0.1c-0.5,0-1,0-1.5,0.1
			c-0.5,0.1-0.8,0.2-1.1,0.3c-0.1-0.2-0.1-0.3-0.2-0.5c0-0.2,0-0.3,0-0.4c0-0.1,0-0.2,0-0.3s0.1-0.2,0.2-0.2c0.2-0.1,0.5-0.2,1-0.3
			c0.5-0.1,1.2-0.2,1.9-0.2c0.8,0,1.5,0.2,1.8,0.5c0.4,0.3,0.6,1,0.6,1.8v1c0,0.7,0,1.5,0,2.2c0,0.7,0,1.4,0,2.1
			c0,0.7,0,1.2-0.1,1.7c-0.3,0.2-0.6,0.3-1.1,0.4C100.7,185.1,100.2,185.2,99.6,185.2z M99.7,183.9c0.2,0,0.4,0,0.6-0.1
			c0.2-0.1,0.3-0.1,0.4-0.2c0-0.2,0-0.5,0-0.9c0-0.4,0-0.7,0-1.1c0-0.4,0-0.8,0-1.1c-0.1-0.1-0.3-0.1-0.5-0.1c-0.2,0-0.3,0-0.5,0
			c-0.2,0-0.4,0-0.6,0.1c-0.2,0-0.3,0.1-0.5,0.3c-0.1,0.1-0.2,0.3-0.3,0.6s-0.1,0.6-0.1,1c0,0.3,0,0.6,0.1,0.9s0.1,0.4,0.3,0.5
			s0.3,0.2,0.4,0.2S99.5,183.9,99.7,183.9z"/>
		<path d="M106.6,185.2c-0.5,0-0.9-0.1-1.3-0.2s-0.7-0.4-0.9-0.7c-0.2-0.3-0.4-0.8-0.6-1.5c-0.1-0.6-0.2-1.5-0.2-2.5
			c0-1.2,0.1-2.1,0.3-2.8c0.2-0.7,0.5-1.2,0.8-1.6c0.3-0.4,0.7-0.6,1.1-0.7s0.8-0.2,1.2-0.2c0.5,0,0.8,0.1,1.1,0.2
			c0.3,0.2,0.5,0.4,0.5,0.6c0,0.1,0,0.2,0,0.4c0,0.2-0.1,0.3-0.1,0.5c-0.2-0.1-0.4-0.2-0.6-0.2c-0.2-0.1-0.5-0.1-0.8-0.1
			c-0.2,0-0.4,0-0.7,0.1c-0.2,0.1-0.4,0.3-0.6,0.5c-0.2,0.3-0.3,0.6-0.5,1.2c-0.1,0.5-0.2,1.2-0.2,2.1c0,0.7,0,1.3,0.1,1.7
			c0.1,0.4,0.2,0.8,0.3,1c0.1,0.3,0.3,0.4,0.5,0.5c0.2,0.1,0.5,0.2,0.8,0.2c0.3,0,0.6,0,0.9-0.1c0.3-0.1,0.5-0.2,0.7-0.3
			c0.1,0.2,0.1,0.3,0.1,0.5c0,0.1,0,0.3,0,0.4c0,0.3-0.2,0.5-0.6,0.7C107.7,185.1,107.2,185.2,106.6,185.2z"/>
		<path d="M112.7,185.2c-0.5,0-0.9-0.1-1.2-0.4c-0.3-0.2-0.4-0.6-0.5-1c-0.1-0.4-0.1-0.9-0.1-1.5v-5.6h-1.3c0-0.4,0-0.7,0-0.9
			s0-0.3,0.1-0.4c0.1-0.1,0.1-0.1,0.2-0.1h1v-2.9c0-0.2,0-0.3,0.1-0.4s0.2-0.1,0.5-0.1c0.2,0,0.6,0,1,0v3.5h2c0,0.4,0,0.7,0,0.9
			c0,0.2,0,0.3-0.1,0.4c0,0.1-0.1,0.1-0.2,0.1h-1.7v5.6c0,0.3,0,0.5,0,0.8s0.1,0.4,0.2,0.6s0.3,0.2,0.5,0.2c0.2,0,0.4,0,0.6-0.1
			c0.2,0,0.3-0.1,0.5-0.2c0,0.1,0.1,0.2,0.1,0.3c0,0.1,0,0.3,0,0.4c0,0.2-0.1,0.4-0.3,0.5c-0.2,0.1-0.4,0.2-0.6,0.3
			C113.2,185.2,112.9,185.2,112.7,185.2z"/>
		<path d="M116.4,174c-0.2,0-0.4-0.1-0.6-0.3c-0.1-0.2-0.2-0.5-0.2-0.9c0-0.3,0.1-0.6,0.2-0.8c0.1-0.2,0.4-0.3,0.7-0.3
			c0.3,0,0.5,0.1,0.6,0.3s0.2,0.5,0.2,0.9c0,0.4-0.1,0.7-0.2,0.9C116.9,173.9,116.7,174,116.4,174z M115.7,185v-9
			c0-0.2,0-0.4,0.1-0.5s0.3-0.2,0.5-0.2c0.2,0,0.6,0,1,0v9.4c0,0.1,0,0.2-0.1,0.2c0,0-0.2,0.1-0.4,0.1
			C116.6,185,116.2,185,115.7,185z"/>
		<path d="M121.7,185.2c-0.5,0-0.9-0.1-1.2-0.4c-0.3-0.2-0.4-0.6-0.5-1c-0.1-0.4-0.1-0.9-0.1-1.5v-5.6h-1.3c0-0.4,0-0.7,0-0.9
			s0-0.3,0.1-0.4c0.1-0.1,0.1-0.1,0.2-0.1h1v-2.9c0-0.2,0-0.3,0.1-0.4s0.2-0.1,0.5-0.1c0.2,0,0.6,0,1,0v3.5h2c0,0.4,0,0.7,0,0.9
			c0,0.2,0,0.3-0.1,0.4c0,0.1-0.1,0.1-0.2,0.1h-1.7v5.6c0,0.3,0,0.5,0,0.8s0.1,0.4,0.2,0.6s0.3,0.2,0.5,0.2c0.2,0,0.4,0,0.6-0.1
			c0.2,0,0.3-0.1,0.5-0.2c0,0.1,0.1,0.2,0.1,0.3c0,0.1,0,0.3,0,0.4c0,0.2-0.1,0.4-0.3,0.5c-0.2,0.1-0.4,0.2-0.6,0.3
			C122.2,185.2,122,185.2,121.7,185.2z"/>
		<path d="M125.5,174c-0.2,0-0.4-0.1-0.6-0.3c-0.1-0.2-0.2-0.5-0.2-0.9c0-0.3,0.1-0.6,0.2-0.8c0.1-0.2,0.4-0.3,0.7-0.3
			c0.3,0,0.5,0.1,0.6,0.3s0.2,0.5,0.2,0.9c0,0.4-0.1,0.7-0.2,0.9C126,173.9,125.8,174,125.5,174z M124.7,185v-9c0-0.2,0-0.4,0.1-0.5
			s0.3-0.2,0.5-0.2c0.2,0,0.6,0,1,0v9.4c0,0.1,0,0.2-0.1,0.2c0,0-0.2,0.1-0.4,0.1C125.6,185,125.2,185,124.7,185z"/>
		<path d="M130.8,185.2c-0.5,0-0.9-0.1-1.3-0.2c-0.4-0.1-0.7-0.4-1-0.7c-0.3-0.3-0.5-0.9-0.6-1.5c-0.1-0.7-0.2-1.5-0.2-2.6
			c0-1.8,0.3-3.1,0.9-3.8c0.6-0.8,1.4-1.2,2.4-1.2c0.7,0,1.2,0.1,1.7,0.4c0.4,0.3,0.8,0.8,1,1.5c0.2,0.7,0.3,1.7,0.3,3
			c0,1.8-0.3,3.1-0.8,3.9S131.8,185.2,130.8,185.2z M130.8,183.9c0.3,0,0.5-0.1,0.7-0.3s0.4-0.6,0.5-1.1c0.1-0.5,0.2-1.3,0.2-2.3
			c0-1-0.1-1.8-0.2-2.3s-0.3-0.9-0.4-1.1c-0.2-0.2-0.5-0.3-0.8-0.3c-0.3,0-0.5,0.1-0.8,0.3c-0.2,0.2-0.4,0.6-0.5,1.1
			c-0.1,0.5-0.2,1.3-0.2,2.3c0,0.8,0,1.4,0.1,1.9s0.2,0.9,0.3,1.1c0.1,0.3,0.3,0.4,0.4,0.5S130.6,183.9,130.8,183.9z"/>
		<path d="M135.4,185v-9.2c0.3-0.1,0.6-0.2,0.9-0.3c0.3-0.1,0.7-0.2,1.1-0.2c0.4-0.1,0.7-0.1,1.1-0.1c0.7,0,1.2,0.1,1.6,0.3
			c0.4,0.2,0.7,0.4,0.9,0.8s0.3,0.9,0.3,1.5v7c0,0.1,0,0.2-0.1,0.2c-0.1,0-0.2,0.1-0.4,0.1s-0.6,0-1.1,0v-6.8c0-0.6-0.1-1-0.2-1.3
			c-0.1-0.3-0.5-0.4-0.9-0.4c-0.2,0-0.5,0-0.7,0.1s-0.5,0.1-0.7,0.3v7.9c0,0.1,0,0.2-0.1,0.2c0,0-0.2,0.1-0.4,0.1
			S135.9,185,135.4,185z"/>
		<path d="M145.6,185.2c-0.4,0-0.8-0.1-1.2-0.2c-0.4-0.1-0.7-0.3-1-0.7s-0.5-0.8-0.6-1.4c-0.1-0.6-0.2-1.4-0.2-2.3
			c0-1.2,0.1-2.2,0.3-2.9c0.2-0.7,0.5-1.3,0.8-1.7c0.3-0.4,0.7-0.6,1.1-0.8c0.4-0.1,0.8-0.2,1.3-0.2c0.8,0,1.4,0.3,1.8,0.8
			c0.4,0.5,0.6,1.3,0.6,2.3c0,0.4,0,0.9,0,1.3c0,0.5-0.1,0.9-0.2,1.2c-0.4,0.1-0.9,0.2-1.5,0.2c-0.5,0-1.1,0.1-1.6,0.1
			c-0.5,0-1.1,0-1.7,0l0-1.3c0.5,0,0.9,0,1.3,0c0.4,0,0.7,0,1.1-0.1c0.4,0,0.7-0.1,0.9-0.2c0-0.2,0.1-0.4,0.1-0.6c0-0.2,0-0.4,0-0.6
			c0-0.7-0.1-1.2-0.2-1.5s-0.4-0.4-0.9-0.4c-0.2,0-0.4,0.1-0.6,0.2c-0.2,0.1-0.4,0.3-0.5,0.6s-0.3,0.7-0.4,1.3s-0.1,1.2-0.1,2
			c0,0.6,0,1.1,0.1,1.5c0.1,0.4,0.2,0.7,0.3,0.9s0.3,0.4,0.6,0.5c0.2,0.1,0.5,0.1,0.8,0.1c0.4,0,0.8-0.1,1.2-0.2
			c0.4-0.1,0.7-0.3,1-0.4c0.1,0.2,0.1,0.3,0.1,0.5s0,0.4,0,0.5c0,0.2-0.1,0.4-0.4,0.5c-0.2,0.2-0.6,0.3-1,0.4
			C146.5,185.2,146.1,185.2,145.6,185.2z"/>
		<path d="M149.8,185v-9c0.4-0.3,0.8-0.5,1.2-0.6s0.9-0.2,1.4-0.2c0.5,0,0.9,0.1,1.1,0.2s0.3,0.3,0.3,0.6c0,0.1,0,0.2,0,0.4
			c0,0.2-0.1,0.3-0.1,0.5c-0.1-0.1-0.3-0.1-0.4-0.2s-0.3-0.1-0.5-0.1c-0.2,0-0.4,0-0.7,0.1c-0.2,0.1-0.4,0.2-0.6,0.3l0,7.6
			c0,0.1,0,0.2-0.1,0.2c0,0-0.2,0.1-0.4,0.1S150.3,185,149.8,185z"/>
		<path d="M156.9,185.2c-0.7,0-1.3-0.1-1.7-0.2c-0.4-0.2-0.7-0.4-0.7-0.7c0-0.1,0-0.3,0.1-0.4c0-0.2,0.1-0.3,0.2-0.5
			c0.3,0.2,0.6,0.3,0.9,0.4c0.3,0.1,0.7,0.1,1,0.1c0.5,0,0.9-0.1,1.2-0.3c0.3-0.2,0.4-0.5,0.4-0.9c0-0.3-0.1-0.5-0.2-0.8
			c-0.1-0.2-0.3-0.5-0.6-0.8l-1.9-1.6c-0.4-0.4-0.7-0.7-0.9-1.1c-0.1-0.3-0.2-0.7-0.2-1c0-0.5,0.1-0.9,0.3-1.2
			c0.2-0.3,0.6-0.6,1-0.8c0.5-0.2,1.1-0.3,1.8-0.3c0.7,0,1.2,0.1,1.5,0.2c0.3,0.1,0.6,0.3,0.7,0.4c0.1,0.2,0.2,0.3,0.2,0.5
			c0,0.3-0.1,0.5-0.3,0.8c-0.3-0.2-0.6-0.3-0.9-0.4c-0.3-0.1-0.6-0.1-1-0.1c-0.5,0-0.8,0.1-1.1,0.2c-0.3,0.2-0.4,0.4-0.4,0.7
			c0,0.2,0,0.3,0.1,0.5c0.1,0.2,0.3,0.4,0.6,0.7l1.8,1.5c0.4,0.4,0.7,0.8,0.9,1.1c0.2,0.4,0.3,0.8,0.3,1.3c0,0.9-0.3,1.5-0.9,2
			C158.7,185,157.9,185.2,156.9,185.2z"/>
	</g>
</g>
</svg>
