<?xml version="1.0" encoding="utf-8"?>
<!-- Generator: Adobe Illustrator 26.0.3, SVG Export Plug-In . SVG Version: 6.00 Build 0)  -->
<svg version="1.1" id="Layer_1" xmlns="http://www.w3.org/2000/svg" xmlns:xlink="http://www.w3.org/1999/xlink" x="0px" y="0px"
	 viewBox="0 0 200 200" style="enable-background:new 0 0 200 200;" xml:space="preserve">
<style type="text/css">
	.st0{fill:#172049;}
	.st1{fill:none;stroke:#172049;stroke-width:11;stroke-miterlimit:10;}
</style>
<g>
	<g>
		<g>
			<path class="st0" d="M9.1,174.7c-1.8,0-3.1-0.3-4-0.8c-0.9-0.5-1.3-1.2-1.3-1.9c0-0.5,0.1-1,0.2-1.6c0.2-0.6,0.4-1.2,0.8-1.7
				c0.4,0.4,1,0.7,1.6,0.9c0.7,0.3,1.4,0.4,2.1,0.4c1.1,0,1.9-0.3,2.3-0.8c0.4-0.6,0.6-1.3,0.6-2.2c0-0.7-0.1-1.4-0.4-2
				c-0.3-0.6-0.7-1.4-1.4-2.3l-3.7-4.9c-0.9-1.2-1.5-2.3-1.8-3.2c-0.3-0.9-0.4-1.8-0.4-2.7c0-1.8,0.6-3.3,1.8-4.4s3-1.7,5.3-1.7
				c2,0,3.5,0.2,4.3,0.6s1.2,0.9,1.2,1.6c0,0.4-0.1,0.8-0.2,1.2s-0.4,0.9-0.8,1.3c-0.2-0.2-0.7-0.3-1.3-0.5
				c-0.7-0.2-1.4-0.3-2.2-0.3c-1,0-1.8,0.2-2.3,0.5c-0.6,0.3-0.8,0.8-0.8,1.5c0,0.6,0.1,1.2,0.3,1.7c0.2,0.5,0.6,1.1,1.1,1.9
				l3.9,4.9c1,1.2,1.6,2.3,1.9,3.3s0.5,2.1,0.5,3.2c0,1.3-0.2,2.6-0.6,3.8c-0.4,1.2-1.1,2.2-2.2,2.9
				C12.6,174.3,11.1,174.7,9.1,174.7z"/>
			<path class="st0" d="M25.6,174.4c-0.3,0-0.7,0-1.2,0c-0.5,0-1.1-0.1-1.6-0.1l6.7-27.2c0.1-0.6,0.7-0.8,1.8-0.8c0.4,0,0.8,0,1.1,0
				c0.4,0,0.7,0.1,1,0.1l6.7,27.3c0.1,0.3,0,0.5-0.3,0.6c-0.2,0.1-0.8,0.2-1.7,0.2c-0.3,0-0.7,0-1.1,0c-0.4,0-0.9,0-1.5-0.1
				l-2.9-14.2c-0.1-0.7-0.3-1.5-0.4-2.3s-0.3-1.7-0.4-2.6c-0.1-0.9-0.2-1.8-0.3-2.6c-0.1,0.8-0.2,1.7-0.3,2.6
				c-0.1,0.9-0.2,1.8-0.4,2.6c-0.1,0.8-0.3,1.6-0.4,2.3l-2.8,13.4c-0.1,0.3-0.2,0.5-0.4,0.6S26.5,174.4,25.6,174.4z M27.3,167.9
				v-4.1h9.1v4.1H27.3z"/>
			<path class="st0" d="M47,174.3v-27c0-0.4,0.1-0.6,0.2-0.8c0.1-0.2,0.5-0.3,1.1-0.3c0.6,0,1.7,0,3.1,0v23.9h5.7v3.4
				c0,0.3-0.1,0.5-0.2,0.6s-0.3,0.2-0.6,0.2H47z"/>
			<path class="st0" d="M71.7,174.7c-1.6,0-2.8-0.2-3.8-0.6c-0.9-0.4-1.7-1-2.2-1.7c-0.5-0.7-0.8-1.6-1-2.6c-0.2-1-0.2-2-0.2-3.1
				V147c0-0.3,0.1-0.5,0.2-0.6c0.1-0.1,0.5-0.2,1.2-0.2c0.6,0,1.7,0,3.3,0v20.5c0,0.6,0,1.2,0.1,1.7c0.1,0.5,0.2,0.9,0.4,1.2
				c0.2,0.3,0.4,0.6,0.8,0.7c0.3,0.1,0.8,0.2,1.3,0.2c0.5,0,0.9,0,1.3-0.1c0.4-0.1,0.8-0.2,1-0.3v-23c0-0.3,0.1-0.5,0.2-0.6
				c0.1-0.1,0.5-0.2,1.1-0.2s1.7,0,3.2,0v27c-0.5,0.3-1.3,0.7-2.5,1C74.9,174.5,73.4,174.7,71.7,174.7z"/>
			<path class="st0" d="M86.7,174.3V147c0-0.3,0.1-0.5,0.2-0.6s0.5-0.2,0.9-0.2h3.9c0.9,0,1.7,0.1,2.5,0.3c0.8,0.2,1.5,0.5,2.2,0.9
				c0.6,0.5,1.2,1.1,1.5,1.9c0.4,0.8,0.6,1.9,0.6,3.2c0,1.4-0.2,2.5-0.6,3.4c-0.4,0.9-0.8,1.6-1.4,2.1c-0.6,0.5-1.1,0.8-1.7,0.9
				c0.5,0.1,1,0.2,1.5,0.3c0.5,0.2,1,0.5,1.5,0.9c0.5,0.4,0.8,1,1.1,1.7s0.4,1.7,0.4,2.9c0,1.1-0.1,2.1-0.3,3
				c-0.2,0.9-0.4,1.8-0.8,2.6c-0.4,0.8-0.9,1.5-1.4,2.1c-0.6,0.6-1.3,1-2.1,1.4c-0.8,0.3-1.8,0.5-2.9,0.5H86.7z M91.2,157.3H92
				c0.3,0,0.6-0.2,0.8-0.5c0.2-0.3,0.4-0.8,0.5-1.3c0.1-0.6,0.2-1.2,0.2-2c0-0.9-0.1-1.6-0.2-2.1c-0.1-0.5-0.3-0.8-0.5-1
				c-0.2-0.2-0.4-0.2-0.7-0.2h-0.9V157.3z M91.2,170.4H92c0.3,0,0.6-0.1,0.8-0.4c0.2-0.2,0.4-0.6,0.6-1c0.2-0.5,0.3-1,0.4-1.6
				c0.1-0.6,0.1-1.4,0.1-2.2c0-0.9,0-1.6-0.1-2.2c-0.1-0.5-0.2-0.9-0.4-1.2c-0.2-0.3-0.4-0.5-0.6-0.6c-0.2-0.1-0.5-0.1-0.8-0.1h-0.9
				V170.4z"/>
			<path class="st0" d="M106.6,174.3V147c0.1-0.5,0.4-0.8,0.8-0.8h2.9c0.4,0,0.7,0.3,0.8,0.8v26.5c0,0.3-0.1,0.5-0.2,0.6
				c-0.1,0.1-0.5,0.2-1.1,0.2C109.2,174.3,108.1,174.3,106.6,174.3z M108,163.4c-0.5,0-0.7-0.1-0.8-0.2c-0.1-0.2-0.1-0.5-0.1-0.9
				V147c0.1-0.5,0.3-0.8,0.7-0.8h3.5c1.7,0,3.1,0.2,4.3,0.7c1.2,0.5,2,1.3,2.6,2.5s0.9,2.9,0.9,5.1c0,1.8-0.2,3.3-0.7,4.5
				c-0.4,1.2-1,2.1-1.8,2.7c-0.7,0.7-1.6,1.1-2.4,1.4c-0.9,0.3-1.8,0.4-2.7,0.4H108z M111.1,159.3h0.8c0.4,0,0.8-0.1,1.1-0.4
				c0.3-0.3,0.5-0.8,0.7-1.5c0.2-0.7,0.3-1.8,0.3-3.2c0-1-0.1-1.8-0.2-2.4c-0.1-0.6-0.3-1.1-0.6-1.3c-0.3-0.3-0.6-0.4-1-0.4h-1.1
				V159.3z M117.3,174.4c-0.3,0-0.7,0-1.2,0s-0.9-0.1-1.4-0.1c-0.1-2.4-0.3-4.3-0.6-5.8c-0.3-1.5-0.7-2.7-1.2-3.6s-1-1.7-1.7-2.4
				c-0.2-0.4-0.1-0.7,0.3-0.8l2.5-1.4c0.4,0,0.7,0.1,0.8,0.4c0.9,0.9,1.7,1.8,2.3,2.8s1.1,2.3,1.6,4s0.8,3.6,0.9,6
				c0,0.4-0.1,0.6-0.3,0.8C119.1,174.3,118.4,174.4,117.3,174.4z"/>
			<path class="st0" d="M126.9,174.3v-26.1c0-0.7,0.1-1.1,0.2-1.4s0.5-0.4,1.2-0.5c0.6-0.1,1.7-0.1,3.2-0.1v27.3
				c0,0.3-0.1,0.5-0.2,0.6c-0.1,0.1-0.5,0.2-1.1,0.2C129.5,174.3,128.4,174.3,126.9,174.3z"/>
			<path class="st0" d="M146.3,174.7c-1.3,0-2.4-0.2-3.4-0.6s-1.7-1.2-2.2-2.2c-0.6-1.1-1-2.6-1.2-4.5c-0.3-1.9-0.4-4.3-0.4-7.3
				c0-3.6,0.3-6.5,0.8-8.6c0.6-2.1,1.4-3.5,2.5-4.4s2.6-1.3,4.3-1.3c1.3,0,2.4,0.2,3.3,0.7c0.9,0.4,1.6,1.2,2.2,2.2
				c0.6,1.1,1,2.5,1.2,4.3s0.4,4.1,0.4,6.9c0,3.8-0.3,6.7-0.8,8.9c-0.5,2.1-1.4,3.7-2.5,4.6C149.5,174.2,148.1,174.7,146.3,174.7z
				 M146.6,170c0.7,0,1.2-0.3,1.5-1c0.3-0.7,0.6-1.7,0.7-3.2c0.1-1.5,0.2-3.4,0.2-5.7c0-2.3,0-4.2-0.1-5.6s-0.3-2.4-0.6-3.1
				c-0.3-0.6-0.8-0.9-1.5-0.9c-0.6,0-1.1,0.3-1.5,1s-0.6,1.8-0.7,3.3c-0.1,1.6-0.2,3.6-0.2,6.3c0,2.1,0.1,3.8,0.2,5.1
				c0.1,1.3,0.3,2.3,0.7,2.9C145.4,169.7,145.9,170,146.6,170z"/>
			<path class="st0" d="M168.7,174.7c-1.6,0-2.8-0.2-3.8-0.6c-0.9-0.4-1.7-1-2.2-1.7c-0.5-0.7-0.8-1.6-1-2.6c-0.2-1-0.2-2-0.2-3.1
				V147c0-0.3,0.1-0.5,0.2-0.6c0.1-0.1,0.5-0.2,1.2-0.2c0.6,0,1.7,0,3.3,0v20.5c0,0.6,0,1.2,0.1,1.7c0.1,0.5,0.2,0.9,0.4,1.2
				c0.2,0.3,0.4,0.6,0.8,0.7c0.3,0.1,0.8,0.2,1.3,0.2c0.5,0,0.9,0,1.3-0.1c0.4-0.1,0.8-0.2,1-0.3v-23c0-0.3,0.1-0.5,0.2-0.6
				c0.1-0.1,0.5-0.2,1.1-0.2c0.6,0,1.7,0,3.2,0v27c-0.5,0.3-1.3,0.7-2.5,1C171.9,174.5,170.4,174.7,168.7,174.7z"/>
			<path class="st0" d="M188.3,174.7c-1.8,0-3.1-0.3-4-0.8c-0.9-0.5-1.3-1.2-1.3-1.9c0-0.5,0.1-1,0.2-1.6c0.2-0.6,0.4-1.2,0.8-1.7
				c0.4,0.4,1,0.7,1.6,0.9c0.7,0.3,1.4,0.4,2.1,0.4c1.1,0,1.9-0.3,2.3-0.8c0.4-0.6,0.6-1.3,0.6-2.2c0-0.7-0.1-1.4-0.4-2
				c-0.3-0.6-0.7-1.4-1.4-2.3l-3.7-4.9c-0.9-1.2-1.5-2.3-1.8-3.2c-0.3-0.9-0.4-1.8-0.4-2.7c0-1.8,0.6-3.3,1.8-4.4
				c1.2-1.1,3-1.7,5.3-1.7c2,0,3.5,0.2,4.3,0.6s1.2,0.9,1.2,1.6c0,0.4-0.1,0.8-0.2,1.2s-0.4,0.9-0.8,1.3c-0.2-0.2-0.7-0.3-1.3-0.5
				c-0.7-0.2-1.4-0.3-2.2-0.3c-1,0-1.8,0.2-2.3,0.5c-0.6,0.3-0.8,0.8-0.8,1.5c0,0.6,0.1,1.2,0.3,1.7c0.2,0.5,0.6,1.1,1.1,1.9
				l3.9,4.9c1,1.2,1.6,2.3,1.9,3.3c0.3,1,0.5,2.1,0.5,3.2c0,1.3-0.2,2.6-0.6,3.8c-0.4,1.2-1.1,2.2-2.2,2.9
				C191.8,174.3,190.3,174.7,188.3,174.7z"/>
		</g>
	</g>
	<g>
		<g>
			<path class="st0" d="M23.9,197.8v-15.1c0-0.1,0-0.2,0.1-0.2c0.1,0,0.1-0.1,0.2-0.1h0.6l0.1,1.2l-0.2,1c0,0.5,0,1,0,1.4
				c0,0.4,0,0.9,0,1.4s0,1,0,1.4c0,0.5,0,0.9,0,1.2s0,0.6,0,0.7l0,6.6c0,0.1,0,0.2-0.1,0.2c0,0-0.1,0.1-0.3,0.1
				C24.5,197.8,24.3,197.8,23.9,197.8z M27.8,194.8l-1.3-4.1c0,0-0.1-0.2-0.2-0.6c-0.1-0.3-0.2-0.8-0.4-1.3c-0.2-0.5-0.3-1-0.5-1.6
				c-0.2-0.5-0.3-1.1-0.5-1.5c-0.2-0.5-0.3-1-0.5-1.6l0.4-1.7l2.5,8.1c0,0.1,0.1,0.3,0.2,0.5s0.2,0.6,0.3,0.9
				c0.1,0.3,0.2,0.7,0.4,1.2c0.1-0.5,0.3-0.9,0.4-1.2c0.1-0.3,0.2-0.6,0.3-0.9c0.1-0.3,0.1-0.5,0.2-0.5l2.5-7.9l0.4,1.5
				c-0.2,0.6-0.3,1.2-0.5,1.6c-0.1,0.5-0.3,1-0.5,1.5s-0.3,1.1-0.5,1.5c-0.1,0.5-0.3,0.9-0.4,1.2c-0.1,0.3-0.2,0.5-0.2,0.6l-1.3,3.9
				c0,0.1-0.1,0.2-0.2,0.2H27.8z M31.4,197.8l0-6.7c0-0.1,0-0.4,0-0.8c0-0.4,0-0.8,0-1.3s0-1,0-1.5c0-0.5,0-1,0-1.5c0-0.5,0-1,0-1.5
				l-0.2-0.3v-1.4c0,0,0-0.1,0.1-0.2s0.1-0.1,0.2-0.1c0.2,0,0.4,0,0.5,0c0.1,0,0.2,0,0.2,0v15.1c0,0.1,0,0.2,0,0.2
				c0,0-0.1,0.1-0.3,0.1C31.9,197.8,31.7,197.8,31.4,197.8z"/>
			<path class="st0" d="M38.2,198.1c-0.5,0-1-0.1-1.4-0.2s-0.8-0.4-1.2-0.7c-0.3-0.4-0.6-0.9-0.8-1.5c-0.2-0.7-0.3-1.6-0.3-2.7
				c0-1.4,0.1-2.6,0.4-3.4c0.2-0.8,0.5-1.5,0.9-1.9c0.4-0.4,0.8-0.7,1.3-0.8c0.5-0.1,0.9-0.2,1.4-0.2c1,0,1.7,0.3,2.1,0.9
				c0.4,0.6,0.6,1.5,0.6,2.5c0,0.4,0,0.9,0,1.3s-0.1,0.9-0.1,1.2c-0.6,0.1-1.3,0.2-1.9,0.3s-1.3,0.1-1.9,0.1c-0.6,0-1.3,0-2,0v-0.9
				c0.7,0,1.3,0,1.8,0c0.5,0,1.1,0,1.6-0.1c0.6,0,1.1-0.1,1.5-0.2c0-0.3,0.1-0.5,0.1-0.8c0-0.2,0-0.5,0-0.7c0-0.9-0.1-1.6-0.4-2.1
				c-0.2-0.5-0.7-0.7-1.4-0.7c-0.3,0-0.6,0.1-1,0.2s-0.6,0.3-0.9,0.7s-0.5,0.9-0.7,1.6c-0.2,0.7-0.3,1.7-0.3,3
				c0,0.9,0.1,1.6,0.2,2.2c0.1,0.5,0.3,1,0.6,1.2c0.2,0.3,0.5,0.5,0.9,0.6c0.3,0.1,0.7,0.1,1.1,0.1c0.5,0,1-0.1,1.5-0.2
				c0.5-0.1,0.9-0.3,1.2-0.6c0,0.1,0.1,0.2,0.1,0.4c0,0.1,0,0.2,0,0.3c0,0.1-0.1,0.3-0.4,0.5c-0.3,0.2-0.6,0.3-1.1,0.4
				C39.2,198,38.7,198.1,38.2,198.1z"/>
			<path class="st0" d="M46.5,198.1c-0.5,0-1-0.1-1.4-0.2c-0.4-0.1-0.8-0.4-1.1-0.7s-0.6-0.9-0.8-1.6c-0.2-0.7-0.3-1.7-0.3-2.9
				c0-1.4,0.2-2.5,0.5-3.4c0.3-0.9,0.8-1.5,1.4-1.9c0.6-0.4,1.2-0.6,1.9-0.6c0.4,0,0.7,0,1.1,0.1s0.6,0.2,0.8,0.4v-4.9
				c0-0.2,0-0.3,0.1-0.4c0.1-0.1,0.2-0.1,0.3-0.1c0.2,0,0.4,0,0.6,0v15.7c-0.4,0.2-0.8,0.3-1.3,0.5S47.1,198.1,46.5,198.1z
				 M46.6,197.1c0.4,0,0.7,0,1.1-0.1s0.6-0.2,0.9-0.4v-8.6c-0.2-0.2-0.5-0.3-0.7-0.4c-0.2-0.1-0.5-0.1-0.9-0.1
				c-0.4,0-0.8,0.1-1.1,0.3c-0.4,0.2-0.7,0.5-1,0.9s-0.5,0.9-0.6,1.5c-0.2,0.6-0.2,1.4-0.2,2.3c0,1,0.1,1.8,0.2,2.4
				c0.1,0.6,0.3,1.1,0.5,1.4c0.2,0.3,0.5,0.5,0.8,0.6C45.9,197.1,46.2,197.1,46.6,197.1z"/>
			<path class="st0" d="M52.7,184.7c-0.2,0-0.3-0.1-0.4-0.2c-0.1-0.1-0.1-0.4-0.1-0.7c0-0.3,0.1-0.5,0.2-0.6
				c0.1-0.2,0.3-0.2,0.5-0.2c0.2,0,0.4,0.1,0.5,0.2c0.1,0.1,0.1,0.4,0.1,0.7c0,0.3-0.1,0.5-0.2,0.7C53.1,184.6,53,184.7,52.7,184.7z
				 M52.3,197.8v-10.5c0-0.2,0-0.3,0.1-0.4c0.1-0.1,0.2-0.1,0.3-0.1c0.1,0,0.3,0,0.6,0v10.7c0,0.1,0,0.2,0,0.2c0,0-0.1,0.1-0.2,0.1
				C52.8,197.8,52.6,197.8,52.3,197.8z"/>
			<path class="st0" d="M58.9,198.1c-0.5,0-0.9-0.1-1.3-0.2c-0.4-0.1-0.7-0.4-1-0.8s-0.5-0.9-0.7-1.6c-0.2-0.7-0.2-1.7-0.2-2.9
				c0-1.3,0.1-2.4,0.4-3.2s0.6-1.4,1-1.8s0.8-0.7,1.3-0.8c0.5-0.1,0.9-0.2,1.4-0.2c0.5,0,0.9,0.1,1.3,0.3s0.6,0.4,0.6,0.6
				c0,0.1,0,0.2,0,0.3c0,0.1-0.1,0.2-0.1,0.3c-0.2-0.1-0.4-0.3-0.7-0.4c-0.3-0.1-0.6-0.2-1-0.2c-0.3,0-0.6,0.1-1,0.2
				c-0.3,0.1-0.7,0.3-1,0.7c-0.3,0.3-0.5,0.9-0.7,1.5c-0.2,0.7-0.3,1.6-0.3,2.7c0,1,0.1,1.7,0.2,2.3c0.1,0.6,0.3,1,0.5,1.3
				c0.2,0.3,0.5,0.5,0.8,0.7c0.3,0.1,0.7,0.2,1,0.2c0.5,0,0.9-0.1,1.3-0.2c0.4-0.2,0.7-0.3,0.8-0.5c0,0.1,0.1,0.2,0.1,0.3
				c0,0.1,0,0.2,0,0.3c0,0.2-0.2,0.4-0.7,0.7C60.2,197.9,59.6,198.1,58.9,198.1z"/>
			<path class="st0" d="M66,198.1c-0.4,0-0.8,0-1.2-0.1s-0.7-0.2-1-0.4s-0.5-0.5-0.7-1c-0.2-0.4-0.3-1-0.3-1.8
				c0-0.8,0.1-1.4,0.3-1.9c0.2-0.5,0.4-0.8,0.8-1.1c0.3-0.2,0.7-0.4,1.1-0.5c0.4-0.1,0.8-0.1,1.3-0.1c0.3,0,0.6,0,1,0.1
				c0.3,0,0.6,0.1,0.9,0.2c0-0.5,0-0.9,0-1.2s0-0.6,0-0.8c0-0.5-0.1-0.9-0.2-1.2c-0.2-0.3-0.4-0.5-0.7-0.5c-0.3-0.1-0.6-0.1-1-0.1
				c-0.7,0-1.4,0.1-2,0.2s-1,0.2-1.3,0.4c0-0.1-0.1-0.2-0.1-0.3c0-0.1,0-0.2,0-0.3c0-0.1,0-0.2,0-0.2s0.1-0.1,0.1-0.2
				c0.2-0.1,0.7-0.3,1.3-0.4c0.6-0.1,1.4-0.2,2.2-0.2c0.9,0,1.5,0.2,2,0.6s0.7,1.1,0.7,2.1v1.4c0,0.8,0,1.6,0,2.4c0,0.8,0,1.5,0,2.2
				c0,0.7,0,1.3-0.1,1.9c-0.2,0.1-0.6,0.3-1,0.5C67.5,198,66.8,198.1,66,198.1z M66.2,197.2c0.4,0,0.8-0.1,1.1-0.2s0.6-0.2,0.7-0.4
				c0-0.3,0.1-0.7,0.1-1.2c0-0.5,0-1,0-1.6s0-1.1,0-1.6c-0.2-0.1-0.5-0.1-0.8-0.2c-0.3,0-0.6-0.1-0.8-0.1c-0.4,0-0.7,0-1,0.1
				c-0.3,0.1-0.6,0.2-0.8,0.4c-0.2,0.2-0.5,0.5-0.6,0.8c-0.2,0.4-0.2,0.9-0.2,1.5c0,0.6,0.1,1,0.2,1.3c0.1,0.3,0.3,0.6,0.5,0.7
				s0.5,0.3,0.7,0.3C65.6,197.2,65.9,197.2,66.2,197.2z"/>
			<path class="st0" d="M71.5,197.8v-15.6c0-0.2,0-0.3,0.1-0.4c0.1-0.1,0.2-0.1,0.3-0.1c0.1,0,0.3,0,0.6,0v15.9c0,0.1,0,0.2,0,0.2
				c0,0-0.1,0.1-0.2,0.1C72.1,197.8,71.9,197.8,71.5,197.8z"/>
			<path class="st0" d="M79.1,197.8v-15.1c0-0.1,0-0.2,0.1-0.2s0.1-0.1,0.2-0.1h0.5c0.1,0,0.2,0.1,0.3,0.3v14.8c0,0.1,0,0.2,0,0.2
				c0,0-0.1,0.1-0.3,0.1C79.6,197.8,79.4,197.8,79.1,197.8z M79.5,191.3c-0.2,0-0.3,0-0.3-0.1c0-0.1,0-0.2,0-0.3v-8.1
				c0-0.1,0-0.2,0-0.2s0-0.1,0.1-0.1h2.2c0.9,0,1.7,0.2,2.2,0.5c0.5,0.4,0.9,0.8,1.2,1.5c0.2,0.6,0.4,1.3,0.4,2.1
				c0,0.8-0.1,1.5-0.3,2.1s-0.4,1.1-0.8,1.4c-0.3,0.4-0.8,0.7-1.2,0.9c-0.5,0.2-1,0.3-1.6,0.3H79.5z M79.9,190.3h1.6
				c0.6,0,1.2-0.1,1.6-0.4c0.4-0.3,0.7-0.7,0.9-1.3c0.2-0.6,0.3-1.3,0.3-2.1c0-0.6-0.1-1.1-0.2-1.6c-0.2-0.5-0.4-0.9-0.8-1.1
				s-0.9-0.4-1.6-0.4h-1.8V190.3z"/>
			<path class="st0" d="M87.3,197.8v-10.2c0.5-0.3,1-0.6,1.5-0.7c0.5-0.2,1-0.2,1.4-0.2c0.5,0,0.9,0.1,1.2,0.2
				c0.3,0.1,0.4,0.3,0.4,0.5c0,0.1,0,0.2,0,0.3s-0.1,0.2-0.1,0.3c-0.2-0.1-0.4-0.2-0.6-0.2c-0.2-0.1-0.5-0.1-0.7-0.1
				c-0.4,0-0.7,0.1-1.1,0.2c-0.4,0.1-0.7,0.3-0.9,0.5l0,9.3c0,0.1,0,0.2,0,0.2c0,0-0.1,0.1-0.3,0.1
				C87.8,197.8,87.6,197.8,87.3,197.8z"/>
			<path class="st0" d="M96.1,198.1c-0.4,0-0.8,0-1.2-0.1s-0.7-0.2-1-0.4s-0.5-0.5-0.7-1c-0.2-0.4-0.3-1-0.3-1.8
				c0-0.8,0.1-1.4,0.3-1.9c0.2-0.5,0.4-0.8,0.8-1.1c0.3-0.2,0.7-0.4,1.1-0.5c0.4-0.1,0.8-0.1,1.3-0.1c0.3,0,0.6,0,1,0.1
				c0.3,0,0.6,0.1,0.9,0.2c0-0.5,0-0.9,0-1.2s0-0.6,0-0.8c0-0.5-0.1-0.9-0.2-1.2c-0.2-0.3-0.4-0.5-0.7-0.5c-0.3-0.1-0.6-0.1-1-0.1
				c-0.7,0-1.4,0.1-2,0.2s-1,0.2-1.3,0.4c0-0.1-0.1-0.2-0.1-0.3c0-0.1,0-0.2,0-0.3c0-0.1,0-0.2,0-0.2s0.1-0.1,0.1-0.2
				c0.2-0.1,0.7-0.3,1.3-0.4c0.6-0.1,1.4-0.2,2.2-0.2c0.9,0,1.5,0.2,2,0.6s0.7,1.1,0.7,2.1v1.4c0,0.8,0,1.6,0,2.4c0,0.8,0,1.5,0,2.2
				c0,0.7,0,1.3-0.1,1.9c-0.2,0.1-0.6,0.3-1,0.5C97.5,198,96.9,198.1,96.1,198.1z M96.3,197.2c0.4,0,0.8-0.1,1.1-0.2
				s0.6-0.2,0.7-0.4c0-0.3,0.1-0.7,0.1-1.2c0-0.5,0-1,0-1.6s0-1.1,0-1.6c-0.2-0.1-0.5-0.1-0.8-0.2c-0.3,0-0.6-0.1-0.8-0.1
				c-0.4,0-0.7,0-1,0.1c-0.3,0.1-0.6,0.2-0.8,0.4c-0.2,0.2-0.5,0.5-0.6,0.8c-0.2,0.4-0.2,0.9-0.2,1.5c0,0.6,0.1,1,0.2,1.3
				c0.1,0.3,0.3,0.6,0.5,0.7s0.5,0.3,0.7,0.3C95.7,197.2,96,197.2,96.3,197.2z"/>
			<path class="st0" d="M104.5,198.1c-0.5,0-0.9-0.1-1.3-0.2c-0.4-0.1-0.7-0.4-1-0.8s-0.5-0.9-0.7-1.6c-0.2-0.7-0.2-1.7-0.2-2.9
				c0-1.3,0.1-2.4,0.4-3.2s0.6-1.4,1-1.8c0.4-0.4,0.8-0.7,1.3-0.8c0.5-0.1,0.9-0.2,1.4-0.2c0.5,0,0.9,0.1,1.3,0.3s0.6,0.4,0.6,0.6
				c0,0.1,0,0.2,0,0.3s-0.1,0.2-0.1,0.3c-0.2-0.1-0.4-0.3-0.7-0.4c-0.3-0.1-0.6-0.2-1-0.2c-0.3,0-0.6,0.1-1,0.2
				c-0.3,0.1-0.7,0.3-1,0.7c-0.3,0.3-0.5,0.9-0.7,1.5c-0.2,0.7-0.3,1.6-0.3,2.7c0,1,0.1,1.7,0.2,2.3c0.1,0.6,0.3,1,0.5,1.3
				c0.2,0.3,0.5,0.5,0.8,0.7c0.3,0.1,0.7,0.2,1,0.2c0.5,0,0.9-0.1,1.3-0.2c0.4-0.2,0.7-0.3,0.8-0.5c0,0.1,0.1,0.2,0.1,0.3
				c0,0.1,0,0.2,0,0.3c0,0.2-0.2,0.4-0.7,0.7C105.8,197.9,105.2,198.1,104.5,198.1z"/>
			<path class="st0" d="M111.9,198.1c-0.6,0-1-0.2-1.3-0.5s-0.4-0.7-0.5-1.2c-0.1-0.5-0.1-1.1-0.1-1.8v-6.8h-1.7c0-0.3,0-0.5,0-0.6
				c0-0.1,0-0.2,0.1-0.2c0,0,0.1-0.1,0.2-0.1h1.4v-3.5c0-0.2,0-0.3,0.1-0.3c0.1-0.1,0.1-0.1,0.3-0.1c0.1,0,0.3,0,0.6,0v4h2.8
				c0,0.3,0,0.5,0,0.6c0,0.1,0,0.2-0.1,0.3c0,0-0.1,0.1-0.2,0.1H111v6.9c0,0.5,0,0.9,0.1,1.3c0,0.4,0.1,0.7,0.3,0.9
				c0.2,0.2,0.4,0.3,0.8,0.3c0.3,0,0.6,0,0.8-0.1c0.2-0.1,0.4-0.2,0.7-0.3c0,0.1,0.1,0.2,0.1,0.3s0,0.2,0,0.3c0,0.2-0.1,0.3-0.3,0.4
				c-0.2,0.1-0.4,0.2-0.6,0.2C112.4,198,112.2,198.1,111.9,198.1z"/>
			<path class="st0" d="M116,184.7c-0.2,0-0.3-0.1-0.4-0.2c-0.1-0.1-0.1-0.4-0.1-0.7c0-0.3,0.1-0.5,0.2-0.6c0.1-0.2,0.3-0.2,0.5-0.2
				c0.2,0,0.4,0.1,0.5,0.2s0.1,0.4,0.1,0.7c0,0.3-0.1,0.5-0.2,0.7C116.4,184.6,116.3,184.7,116,184.7z M115.6,197.8v-10.5
				c0-0.2,0-0.3,0.1-0.4s0.2-0.1,0.3-0.1c0.1,0,0.3,0,0.6,0v10.7c0,0.1,0,0.2,0,0.2c0,0-0.1,0.1-0.2,0.1
				C116.1,197.8,115.9,197.8,115.6,197.8z"/>
			<path class="st0" d="M122.2,198.1c-0.6,0-1-0.2-1.3-0.5s-0.4-0.7-0.5-1.2c-0.1-0.5-0.1-1.1-0.1-1.8v-6.8h-1.7c0-0.3,0-0.5,0-0.6
				c0-0.1,0-0.2,0.1-0.2c0,0,0.1-0.1,0.2-0.1h1.4v-3.5c0-0.2,0-0.3,0.1-0.3c0.1-0.1,0.1-0.1,0.3-0.1c0.1,0,0.3,0,0.6,0v4h2.8
				c0,0.3,0,0.5,0,0.6c0,0.1,0,0.2-0.1,0.3c0,0-0.1,0.1-0.2,0.1h-2.6v6.9c0,0.5,0,0.9,0.1,1.3c0,0.4,0.1,0.7,0.3,0.9
				c0.2,0.2,0.4,0.3,0.8,0.3c0.3,0,0.6,0,0.8-0.1c0.2-0.1,0.4-0.2,0.7-0.3c0,0.1,0.1,0.2,0.1,0.3s0,0.2,0,0.3c0,0.2-0.1,0.3-0.3,0.4
				c-0.2,0.1-0.4,0.2-0.6,0.2C122.7,198,122.5,198.1,122.2,198.1z"/>
			<path class="st0" d="M126.3,184.7c-0.2,0-0.3-0.1-0.4-0.2c-0.1-0.1-0.1-0.4-0.1-0.7c0-0.3,0.1-0.5,0.2-0.6
				c0.1-0.2,0.3-0.2,0.5-0.2c0.2,0,0.4,0.1,0.5,0.2s0.1,0.4,0.1,0.7c0,0.3-0.1,0.5-0.2,0.7C126.7,184.6,126.6,184.7,126.3,184.7z
				 M125.9,197.8v-10.5c0-0.2,0-0.3,0.1-0.4s0.2-0.1,0.3-0.1c0.1,0,0.3,0,0.6,0v10.7c0,0.1,0,0.2,0,0.2c0,0-0.1,0.1-0.2,0.1
				C126.4,197.8,126.2,197.8,125.9,197.8z"/>
			<path class="st0" d="M132.4,198.1c-0.5,0-1-0.1-1.4-0.2c-0.4-0.1-0.8-0.4-1.1-0.8s-0.5-1-0.7-1.7c-0.2-0.8-0.2-1.8-0.2-3
				c0-2,0.3-3.5,1-4.4s1.5-1.3,2.7-1.3c0.8,0,1.4,0.2,1.9,0.5c0.5,0.3,0.9,0.9,1.1,1.7c0.2,0.8,0.4,2,0.4,3.5c0,2-0.3,3.4-0.9,4.3
				C134.5,197.6,133.6,198.1,132.4,198.1z M132.4,197.2c0.5,0,1-0.2,1.4-0.5c0.4-0.3,0.7-0.9,0.9-1.6c0.2-0.7,0.3-1.6,0.3-2.8
				c0-1.3-0.1-2.3-0.3-3s-0.5-1.2-0.8-1.4c-0.4-0.3-0.8-0.4-1.3-0.4s-1,0.2-1.3,0.5c-0.4,0.3-0.7,0.8-0.9,1.5s-0.3,1.7-0.3,3
				c0,1,0.1,1.8,0.2,2.4c0.1,0.6,0.3,1.1,0.5,1.4c0.2,0.3,0.5,0.6,0.8,0.7C131.7,197.1,132.1,197.2,132.4,197.2z"/>
			<path class="st0" d="M138.1,197.8v-10.4c0.4-0.1,0.7-0.3,1.1-0.4c0.4-0.1,0.8-0.2,1.2-0.3c0.4-0.1,0.8-0.1,1.2-0.1
				c0.8,0,1.4,0.1,1.8,0.3c0.4,0.2,0.7,0.6,0.9,1s0.2,1,0.2,1.7v7.9c0,0.1,0,0.2,0,0.2c0,0-0.1,0.1-0.3,0.1c-0.1,0-0.4,0-0.7,0v-7.9
				c0-0.8-0.1-1.4-0.4-1.8c-0.2-0.4-0.8-0.6-1.6-0.6c-0.4,0-0.8,0-1.3,0.1c-0.5,0.1-0.9,0.2-1.3,0.4v9.5c0,0.1,0,0.2,0,0.2
				c0,0-0.1,0.1-0.3,0.1C138.7,197.8,138.4,197.8,138.1,197.8z"/>
			<path class="st0" d="M150.3,198.1c-0.5,0-1-0.1-1.4-0.2s-0.8-0.4-1.2-0.7c-0.3-0.4-0.6-0.9-0.8-1.5c-0.2-0.7-0.3-1.6-0.3-2.7
				c0-1.4,0.1-2.6,0.4-3.4c0.2-0.8,0.5-1.5,0.9-1.9s0.8-0.7,1.3-0.8c0.5-0.1,0.9-0.2,1.4-0.2c1,0,1.7,0.3,2.1,0.9
				c0.4,0.6,0.6,1.5,0.6,2.5c0,0.4,0,0.9,0,1.3c0,0.4-0.1,0.9-0.1,1.2c-0.6,0.1-1.3,0.2-1.9,0.3s-1.3,0.1-1.9,0.1c-0.6,0-1.3,0-2,0
				v-0.9c0.7,0,1.3,0,1.8,0c0.5,0,1.1,0,1.6-0.1c0.6,0,1.1-0.1,1.5-0.2c0-0.3,0.1-0.5,0.1-0.8c0-0.2,0-0.5,0-0.7
				c0-0.9-0.1-1.6-0.4-2.1s-0.7-0.7-1.4-0.7c-0.3,0-0.6,0.1-1,0.2s-0.6,0.3-0.9,0.7s-0.5,0.9-0.7,1.6c-0.2,0.7-0.3,1.7-0.3,3
				c0,0.9,0.1,1.6,0.2,2.2c0.1,0.5,0.3,1,0.6,1.2c0.2,0.3,0.5,0.5,0.9,0.6c0.3,0.1,0.7,0.1,1.1,0.1c0.5,0,1-0.1,1.5-0.2
				s0.9-0.3,1.2-0.6c0,0.1,0.1,0.2,0.1,0.4c0,0.1,0,0.2,0,0.3c0,0.1-0.1,0.3-0.4,0.5c-0.3,0.2-0.6,0.3-1.1,0.4
				C151.3,198,150.8,198.1,150.3,198.1z"/>
			<path class="st0" d="M155.4,197.8v-10.2c0.5-0.3,1-0.6,1.5-0.7s1-0.2,1.4-0.2c0.5,0,0.9,0.1,1.2,0.2c0.3,0.1,0.4,0.3,0.4,0.5
				c0,0.1,0,0.2,0,0.3c0,0.1-0.1,0.2-0.1,0.3c-0.2-0.1-0.4-0.2-0.6-0.2s-0.5-0.1-0.7-0.1c-0.4,0-0.7,0.1-1.1,0.2
				c-0.4,0.1-0.7,0.3-0.9,0.5l0,9.3c0,0.1,0,0.2,0,0.2c0,0-0.1,0.1-0.3,0.1C155.9,197.8,155.7,197.8,155.4,197.8z"/>
			<path class="st0" d="M163.9,198.1c-0.9,0-1.5-0.1-2-0.3s-0.7-0.4-0.7-0.6c0-0.1,0-0.2,0-0.3s0.1-0.2,0.2-0.3
				c0.3,0.2,0.7,0.4,1.1,0.5c0.4,0.1,0.9,0.1,1.4,0.1c0.8,0,1.4-0.1,1.9-0.5c0.5-0.3,0.7-0.8,0.7-1.4c0-0.5-0.1-0.9-0.3-1.2
				c-0.2-0.4-0.6-0.7-1-1l-2.4-1.6c-0.6-0.4-1.1-0.8-1.2-1.2c-0.2-0.4-0.3-0.7-0.3-1.1c0-0.5,0.2-1,0.5-1.3c0.3-0.4,0.7-0.6,1.3-0.8
				c0.5-0.2,1.2-0.3,1.9-0.3c0.7,0,1.2,0.1,1.6,0.2c0.4,0.1,0.7,0.3,0.9,0.4c0.2,0.2,0.3,0.3,0.3,0.4c0,0.2-0.1,0.4-0.3,0.6
				c-0.4-0.2-0.8-0.4-1.2-0.5c-0.4-0.1-0.8-0.2-1.3-0.2c-0.7,0-1.3,0.1-1.8,0.4s-0.7,0.7-0.7,1.2c0,0.3,0.1,0.5,0.2,0.8
				c0.1,0.2,0.5,0.5,0.9,0.9l2.5,1.7c0.5,0.4,0.9,0.8,1.2,1.3c0.3,0.4,0.4,0.9,0.4,1.5c0,1-0.3,1.7-0.9,2.2S165,198.1,163.9,198.1z"
				/>
		</g>
	</g>
	<path class="st1" d="M128.5,119.5c0-30.5-88.7-34.8-88.7-34.8c7.4,25.7,31.1,44.4,59.2,44.4c9.5,0,18.6-2.2,26.6-6
		c20.7-9.9,35-31.1,35-55.5H37.4C37.4,33.6,65,6,99,6c24.4,0,45.5,14.2,55.5,34.9c0,0-88.4,22.4-88.4-25.3"/>
</g>
</svg>
