<svg width="349" height="236" viewBox="0 0 349 236" fill="none" xmlns="http://www.w3.org/2000/svg">
<path d="M13.6675 168.349H8.6626V230.371H13.6675V168.349Z" fill="black"/>
<path d="M52.9272 71.2451H3.66708C1.64181 71.2451 0 72.8869 0 74.9122V176.058C0 178.083 1.64181 179.725 3.66708 179.725H52.9272C54.9525 179.725 56.5943 178.083 56.5943 176.058V74.9122C56.5943 72.8869 54.9525 71.2451 52.9272 71.2451Z" fill="#292929"/>
<path d="M64.0918 71.2666H14.8316C12.8064 71.2666 11.1646 72.9084 11.1646 74.9337V161.987C11.1646 164.012 12.8064 165.654 14.8316 165.654H64.0918C66.117 165.654 67.7589 164.012 67.7589 161.987V74.9337C67.7589 72.9084 66.117 71.2666 64.0918 71.2666Z" fill="black"/>
<path d="M327.127 229.844H330.711C330.711 217.923 319.852 208.092 305.844 206.71V147.663H299.049V206.71L298.868 206.727L298.724 206.71V206.744C284.864 208.246 274.182 218.015 274.182 229.844H277.766C278.209 220.137 285.851 212.067 296.111 209.672C287.857 213.74 282.327 221.172 282.327 229.677H285.913C286.331 220.475 293.228 212.754 302.672 209.932C312.42 212.608 319.579 220.458 319.997 229.844H323.581C323.581 221.494 318.249 214.175 310.243 210.061C319.773 212.85 326.703 220.606 327.127 229.844Z" stroke="black" stroke-width="0.962488" stroke-linecap="round" stroke-linejoin="round"/>
<path d="M338.62 98.022H297.266C291.534 98.022 286.887 102.669 286.887 108.401V149.756C286.887 155.488 291.534 160.135 297.266 160.135H338.62C344.353 160.135 349 155.488 349 149.756V108.401C349 102.669 344.353 98.022 338.62 98.022Z" fill="black"/>
<path d="M336.703 151.923H281.753C279.911 151.923 278.417 153.416 278.417 155.259V165.012C278.417 166.855 279.911 168.348 281.753 168.348H336.703C338.546 168.348 340.039 166.855 340.039 165.012V155.259C340.039 153.416 338.546 151.923 336.703 151.923Z" fill="#292929"/>
<path d="M200.775 129.078H195V230.37H200.775V129.078Z" fill="black"/>
<path d="M328.082 129.078H322.307V230.37H328.082V129.078Z" fill="black"/>
<path d="M258.611 34.072C256.244 39.9188 253.877 45.765 251.51 51.6105L266.483 52.2938C266.996 48.5312 267.509 44.7672 268.023 41.0019L258.611 34.072Z" fill="black"/>
<path d="M210.768 207.751C210.204 207.816 209.685 208.091 209.315 208.521C205.103 213.372 200.972 216.329 197.803 218.179C189.895 222.798 183.352 223.243 180.59 228.879C179.881 230.36 179.497 231.975 179.466 233.617C179.457 233.922 179.509 234.225 179.62 234.51C179.732 234.794 179.899 235.052 180.113 235.27C180.326 235.488 180.581 235.661 180.863 235.777C181.145 235.894 181.448 235.953 181.753 235.95L214.321 235.659C214.885 235.655 215.428 235.44 215.841 235.056C216.255 234.673 216.51 234.148 216.556 233.586C217.105 226.806 219.856 222.294 222.139 222.211C224.422 222.129 227.407 226.364 228.537 232.878C228.629 233.398 228.899 233.871 229.302 234.213C229.705 234.555 230.215 234.745 230.743 234.751L233.987 234.781C234.284 234.784 234.579 234.728 234.855 234.617C235.131 234.506 235.382 234.342 235.594 234.133C235.806 233.925 235.975 233.677 236.091 233.404C236.208 233.13 236.269 232.836 236.272 232.539C236.349 224.165 236.427 215.791 236.507 207.416C236.51 207.096 236.444 206.779 236.316 206.485C236.187 206.192 235.997 205.93 235.759 205.715C235.522 205.501 235.241 205.339 234.936 205.241C234.631 205.143 234.309 205.111 233.991 205.146L210.768 207.751Z" fill="black"/>
<path d="M254.914 207.751C254.35 207.817 253.831 208.091 253.46 208.521C249.248 213.372 245.117 216.329 241.951 218.179C234.043 222.799 227.498 223.243 224.736 228.88C224.026 230.36 223.643 231.976 223.613 233.617C223.604 233.922 223.656 234.225 223.767 234.509C223.878 234.793 224.045 235.052 224.258 235.27C224.471 235.488 224.726 235.66 225.008 235.777C225.289 235.894 225.592 235.953 225.896 235.95L258.467 235.659C259.031 235.655 259.573 235.44 259.986 235.056C260.399 234.673 260.654 234.148 260.7 233.586C261.251 226.806 264.001 222.294 266.282 222.212C268.563 222.129 271.553 226.364 272.683 232.878C272.773 233.399 273.044 233.872 273.447 234.214C273.85 234.556 274.36 234.746 274.889 234.751L278.131 234.782C278.428 234.785 278.723 234.729 278.999 234.618C279.275 234.507 279.526 234.343 279.738 234.134C279.95 233.926 280.119 233.678 280.236 233.404C280.352 233.13 280.413 232.836 280.416 232.539L280.65 207.416C280.654 207.096 280.589 206.779 280.46 206.485C280.331 206.192 280.142 205.929 279.904 205.715C279.666 205.5 279.385 205.339 279.08 205.241C278.775 205.143 278.453 205.111 278.134 205.147L254.914 207.751Z" fill="black"/>
<path d="M199.108 177.333V205.822C204.027 207.979 209.278 209.281 214.635 209.672C225.445 210.442 233.885 207.268 238.119 205.308C253.25 211.081 269.936 211.309 285.218 205.951V177.204L236.194 145.763L199.108 177.333Z" fill="#6BCBB8"/>
<path d="M278.45 207.936C265.048 211.135 250.993 210.219 238.12 205.308V155.963" stroke="black" stroke-width="0.962488" stroke-linecap="round" stroke-linejoin="round"/>
<path d="M241.95 218.173C239.447 219.587 236.854 220.838 234.189 221.917C231.879 222.847 229.871 223.501 227.644 225.347C226.194 226.545 225.44 227.594 224.959 228.456C224.338 229.572 223.931 230.793 223.757 232.058" stroke="white" stroke-width="0.962488" stroke-linecap="round" stroke-linejoin="round"/>
<path d="M289.325 180.852V161.034V160.75L289.594 160.66C293.147 159.47 299.6 156.742 305.212 150.566C315.278 139.489 314.896 125.842 314.735 122.813L314.728 122.668L314.815 122.553C317.943 118.449 322.393 111.415 324.174 101.865C326.024 91.9444 324.676 81.0503 320.671 71.586C316.666 62.1209 310.016 54.1166 301.291 49.9327L289.325 180.852ZM289.325 180.852H242.014C241.042 177.608 240.108 174.191 239.238 170.61C238.035 165.657 237.084 160.916 236.335 156.435L236.11 155.09L235.583 156.348C232.29 164.21 229.944 172.436 228.596 180.852H194.414C193.919 173.332 194.508 165.779 196.162 158.426C198.267 149.165 200.613 138.869 209.492 132.087C213.799 128.799 218.227 127.414 221.082 126.768L221.323 126.714L221.379 126.473C222 123.792 222.621 121.112 223.24 118.432L223.248 118.397L223.25 118.362C223.476 113.539 224.109 103.603 226.3 92.6944C228.493 81.7772 232.236 69.9296 238.658 61.2559L238.341 61.0215L238.658 61.2559C241.823 56.9808 244.767 54.6518 245.5 54.0881L245.501 54.0874C255.436 46.4015 267.284 46.4023 277.418 46.5526L277.519 46.5542C289.093 46.7343 294.799 46.8232 301.291 49.9327L289.325 180.852Z" fill="white" stroke="black" stroke-width="0.787811"/>
<path d="M250.089 97.3944L241.498 97.4675C239.156 96.0379 236.497 95.2075 233.758 95.0497C233.774 94.9 233.774 94.749 233.758 94.5993C233.717 94.2771 233.599 93.9695 233.415 93.7023C232.221 92.8219 230.891 92.1424 229.478 91.6907C223.938 89.9332 218.991 92.401 217.588 93.1017C214.549 94.6368 211.989 96.9749 210.186 99.8622C207.512 104.168 204.767 112.611 209.374 118.298C212.121 121.688 216.24 122.569 218.271 122.833L250.312 122.704C250.124 119.752 249.99 116.714 249.912 113.589C249.775 107.918 249.854 102.511 250.089 97.3944Z" fill="#FF9E9F"/>
<path d="M246.803 55.2046C244.44 58.0921 236.794 68.1905 237.479 82.3237C237.753 87.5964 239.122 92.7544 241.498 97.4694" stroke="black" stroke-width="0.962488" stroke-linecap="round" stroke-linejoin="round"/>
<path d="M297.601 71.0103C297.004 74.8243 296.449 78.7384 295.934 82.7526C295.526 85.9506 295.162 89.0948 294.843 92.185L250.397 92.1638C249.981 98.0485 249.769 104.36 249.862 111.05C249.917 115.004 250.067 118.811 250.312 122.471" stroke="black" stroke-width="0.962488" stroke-linecap="round" stroke-linejoin="round"/>
<path d="M288.427 48.2302L297.667 58.6905L284.127 59.7801L287.464 69.79C275.98 74.2258 266.102 82.0253 259.123 92.1678" stroke="black" stroke-width="0.962488" stroke-linecap="round" stroke-linejoin="round"/>
<path d="M259.637 49.728L251.082 56.144L255.273 57.8553L245.263 66.7544C244.705 77.1938 246.349 87.6338 250.089 97.3962" stroke="black" stroke-width="0.962488" stroke-linecap="round" stroke-linejoin="round"/>
<path d="M241.713 181.246C240.572 177.408 239.482 173.367 238.471 169.13C236.876 162.428 235.678 156.04 234.783 150.062" stroke="black" stroke-width="0.962488" stroke-linecap="round" stroke-linejoin="round"/>
<path d="M266.098 50.8402L281.882 49.1289V50.3262C270.144 57.928 260.792 68.6904 254.902 81.3742C254.902 80.5522 254.902 79.4184 254.99 78.0767C255.624 68.0335 259.522 58.4725 266.092 50.8498L266.098 50.8402Z" fill="#6BCBB8"/>
<path d="M256.665 23.7181C255.986 22.2269 255.636 20.6074 255.637 18.9691C255.637 18.5842 255.679 15.6967 257.306 13.0672C259.485 9.54061 263.273 8.44723 266.161 7.61179C267.984 7.08627 279.12 4.091 286.629 10.7572C287.435 11.4782 288.167 12.2779 288.814 13.1442C293.832 19.7757 293.049 27.9665 292.471 31.5469L256.665 23.7181Z" fill="black"/>
<path d="M263.697 53.874L264.879 44.0028C264.112 43.9184 263.358 43.7439 262.632 43.483C261.68 43.1351 260.785 42.6444 259.98 42.0277C258.511 40.8419 257.849 39.2192 257.37 37.6754C255.943 33.0727 255.017 25.4806 256.729 18.5007C257.217 16.5045 257.959 14.414 259.83 13.001C260.272 12.667 260.754 12.3877 261.264 12.1694L281.54 12.6834C285.105 17.1031 288.669 21.5235 292.233 25.9446C292.368 27.0533 292.81 31.7387 289.667 36.2105C286.356 40.9209 281.457 41.9969 280.427 42.1991L280.348 51.4389L276.612 54.3264C275.472 54.4573 274.261 54.5516 272.983 54.5882C269.871 54.6857 266.757 54.4463 263.697 53.874V53.874Z" fill="#FF9E9F"/>
<path d="M252.921 92.1636C253.044 89.1384 253.518 86.1378 254.334 83.2221C256.817 74.3672 261.841 68.7135 266.738 63.3313C271.235 58.3928 276.321 54.0251 281.882 50.3262" stroke="black" stroke-width="0.962488" stroke-linecap="round" stroke-linejoin="round"/>
<path d="M292.136 50.0781L293.439 42.64L296.535 49.5275L296.583 49.6334C297.284 49.3581 297.93 49.0771 298.508 48.8076C299.627 42.4685 299.322 35.9599 297.617 29.7529C295.911 23.5459 292.847 17.7957 288.646 12.9183C279.697 9.36073 269.776 9.09537 260.649 12.1695C262.242 15.9128 264.905 19.1027 268.303 21.3398C271.7 23.5768 275.683 24.7615 279.751 24.7454C279.967 24.2988 281.349 21.5422 284.071 21.0244C287.512 20.3699 291.106 23.6693 291.578 27.3133C291.963 30.2932 290.129 33.1441 287.728 34.5628C284.565 36.4338 281.276 35.3116 280.798 35.1403C280.147 40.5659 278.631 45.8522 276.307 50.798C276.994 50.9905 277.747 51.1657 278.563 51.3081C279.771 51.5197 280.994 51.6349 282.221 51.6527L284.282 45.5486L285.245 51.8856C286.542 51.8637 287.837 51.764 289.122 51.5873C290.117 51.4487 291.064 51.2716 291.959 51.0656L292.136 50.0781Z" fill="black"/>
<path d="M286.516 26.0334L282.641 28.4666L286.86 30.2106" stroke="black" stroke-width="0.962488" stroke-linecap="round" stroke-linejoin="round"/>
<path d="M257.499 23.2497C258.632 22.6567 259.916 22.4133 261.187 22.5504C262.459 22.6875 263.661 23.1988 264.642 24.0197C264.815 24.8359 264.829 25.6775 264.684 26.4991C264.251 28.938 262.527 30.3664 261.989 30.7783C263.035 31.7009 264.258 32.3993 265.583 32.8303" stroke="black" stroke-width="0.962488" stroke-linecap="round" stroke-linejoin="round"/>
<path d="M263.21 36.5842C263.945 37.1735 264.816 37.5704 265.743 37.7392C267.129 37.9688 268.552 37.6957 269.755 36.9692" stroke="black" stroke-width="0.962488" stroke-linecap="round" stroke-linejoin="round"/>
<path d="M268.342 23.656C269.622 22.8961 271.065 22.4556 272.551 22.3719C274.037 22.2881 275.521 22.5635 276.878 23.1748" stroke="black" stroke-width="0.962488" stroke-linecap="round" stroke-linejoin="round"/>
<path d="M246.974 97.4212L241.497 97.4674C240.739 97.0362 239.954 96.6537 239.147 96.3221C233.114 93.8369 225.526 94.0622 221.886 97.5406C221.381 98.0238 220.034 99.3116 220.313 100.653C220.506 101.616 221.468 102.17 221.693 102.299C222.896 102.994 223.73 102.52 226.057 102.513C227.905 102.513 230.1 102.53 231.447 103.926C231.676 104.164 232.265 104.796 232.313 105.722C232.371 106.877 231.543 107.687 231.351 107.86C230.893 108.288 230.294 108.571 228.463 108.769C226.525 108.979 225.106 108.892 222.421 109.058C221.341 109.125 220.846 109.185 220.338 109.547C219.422 110.199 218.971 111.472 219.127 112.567C219.366 114.249 221.052 115.36 222.292 115.774C223.505 116.176 225.11 116.057 228.323 115.816C229.147 115.757 229.992 115.674 230.464 116.201C230.993 116.796 230.775 117.857 230.677 118.342C230.524 119 230.248 119.624 229.863 120.18C228.872 121.547 223.793 122.902 216.817 123.303" stroke="black" stroke-width="0.962488" stroke-linecap="round" stroke-linejoin="round"/>
<path d="M173.976 105.421C175.617 105.421 176.948 104.091 176.948 102.449C176.948 100.808 175.617 99.4771 173.976 99.4771C172.334 99.4771 171.003 100.808 171.003 102.449C171.003 104.091 172.334 105.421 173.976 105.421Z" fill="white"/>
<path d="M108.39 206.829C108.581 215.717 108.774 224.604 108.967 233.488C108.98 234.144 109.249 234.768 109.717 235.228C110.185 235.687 110.814 235.944 111.47 235.944H167.294C167.723 235.946 168.145 235.838 168.519 235.63C168.894 235.422 169.209 235.122 169.435 234.757C169.66 234.393 169.788 233.976 169.806 233.548C169.824 233.12 169.732 232.694 169.539 232.312C169.325 231.881 169.088 231.436 168.821 230.982C164.513 223.634 157.463 221.565 150.599 217.551C146.605 215.212 141.263 211.391 135.777 204.933C135.538 204.652 135.241 204.426 134.906 204.273C134.571 204.119 134.207 204.041 133.838 204.044L110.873 204.265C110.541 204.267 110.212 204.336 109.907 204.467C109.602 204.597 109.325 204.788 109.094 205.026C108.863 205.265 108.682 205.547 108.561 205.857C108.44 206.166 108.382 206.497 108.39 206.829V206.829Z" fill="black"/>
<path d="M54.5679 206.829L54.9952 233.488C55.0164 234.853 55.8441 235.944 56.8547 235.944H98.2417C99.6258 235.944 100.521 233.983 99.9068 232.312C99.6893 231.723 99.5449 231.232 99.3736 230.981C97.5044 228.258 89.6409 223.016 86.1798 219.176C80.9227 213.343 82.9074 207.528 77.1959 204.931C76.6666 204.69 75.5905 204.475 73.4403 204.043C65.3554 202.424 60.824 204.207 56.4139 204.265C55.3744 204.278 54.5448 205.431 54.5679 206.829Z" fill="black"/>
<path d="M18.9941 125.749C18.0124 127.951 11.119 144.123 19.5716 160.591C25.4408 172.024 35.316 176.998 38.6288 178.493V207.946C59.611 213.444 81.7337 212.776 102.346 206.021C108.405 206.66 114.97 207.089 121.98 207.176C132.278 207.302 142.572 206.68 152.78 205.314C153.344 200.459 153.516 195.567 153.294 190.684C152.845 180.909 151.706 156.008 133.53 139.801C129.68 136.377 122.084 130.662 109.66 127.674L18.9941 125.749Z" fill="#6BCBB8"/>
<path d="M61.3647 211.482C71.5447 211.889 81.7358 211.035 91.7062 208.941C95.6447 208.111 99.331 207.129 102.758 206.065C103.541 195.734 103.532 185.359 102.731 175.03C102.182 168.1 101.443 163.54 99.0731 158.475C96.1722 152.271 92.1201 148.081 89.2557 145.578" stroke="black" stroke-width="0.962488" stroke-linecap="round" stroke-linejoin="round"/>
<path d="M165.355 129.078H159.581V235.943H165.355V129.078Z" fill="#163342"/>
<path d="M292.662 129.078H286.887V235.943H292.662V129.078Z" fill="#163342"/>
<path d="M337.373 122.469H154.458C153.778 122.469 153.228 123.02 153.228 123.699V129.901C153.228 130.581 153.778 131.131 154.458 131.131H337.373C338.052 131.131 338.603 130.581 338.603 129.901V123.699C338.603 123.02 338.052 122.469 337.373 122.469Z" fill="#6BCBB8"/>
<path d="M337.375 122.469H275.499C274.819 122.469 274.269 123.02 274.269 123.699V129.901C274.269 130.581 274.819 131.131 275.499 131.131H337.375C338.054 131.131 338.605 130.581 338.605 129.901V123.699C338.605 123.02 338.054 122.469 337.375 122.469Z" fill="#163342"/>
<path d="M125.701 63.7587C109.171 51.1386 90.7856 50.051 81.6844 49.5139C70.4309 48.8498 55.7164 47.9143 41.0019 56.8288C39.4619 57.7663 14.3699 73.5338 13.5402 101.873C13.4613 104.53 13.0667 130.998 31.377 141.272C36.9248 144.383 42.463 145.041 46.1358 145.122H79.5034V130.234H130.45C146.2 130.234 148.914 125.158 150.341 123.304C160 110.753 146.654 79.7553 125.701 63.7587Z" fill="#111F4A"/>
<path d="M79.513 122.352C84.3971 121.905 89.3207 122.47 93.9773 124.009C99.2668 125.762 104.052 128.771 107.924 132.779C113.364 138.462 114.469 143.684 114.382 146.083C114.357 146.708 114.297 148.223 113.314 148.82C112.29 149.44 110.798 148.747 110.403 148.564C110.11 148.427 109.595 148.15 108.393 146.937C107.596 146.132 106.853 145.275 106.168 144.371C106.701 145.141 108.671 148.121 107.858 150.766C107.583 151.669 107.15 151.994 107.025 152.081C105.885 152.872 104.112 152.054 103.271 151.665C102.742 151.419 101.779 150.912 99.1651 148.393C98.2507 147.511 97.5269 146.762 97.0476 146.26C97.9622 147.398 98.5385 148.771 98.7108 150.221C98.7974 151.026 98.9995 152.937 97.91 153.75C97.267 154.227 96.4566 154.123 96.0428 154.071C94.7068 153.906 93.8618 153.109 91.7501 151.088C90.3641 149.755 89.2996 148.72 88.7663 148.2C86.4082 147.88 84.2032 146.85 82.4447 145.247C81.1371 144.035 80.1289 142.536 79.4995 140.868C79.5046 134.699 79.5091 128.527 79.513 122.352Z" fill="#FF9E9F"/>
<path d="M98.6627 152.514C98.8151 151.043 98.649 149.557 98.1757 148.156C97.2267 145.38 95.2709 143.729 93.9407 142.618C93.0374 141.858 92.0597 141.191 91.0225 140.627" stroke="black" stroke-width="0.962488" stroke-linecap="round" stroke-linejoin="round"/>
<path d="M108.039 149.759C108.011 148.782 107.838 147.815 107.525 146.889C107.167 145.87 106.653 144.912 106.002 144.05C104.145 141.461 101.66 139.238 100.483 138.233" stroke="black" stroke-width="0.962488" stroke-linecap="round" stroke-linejoin="round"/>
<path d="M63.5452 24.0619C62.5206 20.9562 62.1638 17.669 62.498 14.4158C62.652 12.9702 62.883 10.8007 63.8937 8.71789C67.3259 1.65707 77.3916 0.47129 78.8603 0.298043C82.0885 -0.0869526 89.7057 -0.978219 95.2862 4.55416C100.724 9.9441 100.187 17.44 100.081 18.6411L72.3616 30.7338L63.5452 24.0619Z" fill="#292929"/>
<path d="M70.7333 35.3525C70.1622 41.343 69.5918 47.3322 69.022 53.3202C72.3012 55.2249 75.9759 56.347 79.7598 56.5991C83.5437 56.8512 87.3348 56.2265 90.8377 54.7735C90.8955 50.7811 90.9526 46.7887 91.009 42.7963C92.5259 42.2997 95.6617 41.0234 97.6829 37.9204C98.8379 36.1417 99.2017 34.4227 99.4789 32.3591C100.457 25.075 101.789 15.0863 95.9293 10.5511C95.0168 9.84461 94.2507 9.51928 93.2343 9.08808C86.8588 6.39312 77.9481 7.37678 74.5832 12.4241C73.871 13.4905 73.6207 14.5319 73.1279 16.6167C72.1936 20.5666 71.9623 24.6503 72.4446 28.6805L70.4561 28.7459C70.7044 25.8181 69.5051 23.1462 67.353 21.9643C66.9449 21.739 65.2586 20.8863 63.351 21.4792C60.8581 22.2491 59.9649 24.8864 59.7821 25.4292C58.681 28.6709 59.9592 33.1426 63.4607 35.0964C66.7543 36.9348 70.2385 35.5584 70.7333 35.3525Z" fill="#FF9E9F"/>
<path d="M96.5508 16.4525C95.3119 15.9949 93.9465 16.0183 92.724 16.5179C91.8256 16.9075 91.057 17.5452 90.5083 18.3563C91.0401 21.0372 92.0627 23.5968 93.5247 25.906L90.7431 28.089" stroke="black" stroke-width="0.962488" stroke-linecap="round" stroke-linejoin="round"/>
<path d="M85.4898 18.7143C84.1841 18.0053 82.6756 17.7631 81.2136 18.0277C79.7515 18.2923 78.4236 19.0479 77.4492 20.1696" stroke="black" stroke-width="0.962488" stroke-linecap="round" stroke-linejoin="round"/>
<path d="M85.2134 34.0604C85.9564 33.325 87.9083 31.5983 90.8093 31.3019C91.927 31.1897 93.0559 31.2983 94.1318 31.6214" stroke="black" stroke-width="0.962488" stroke-linecap="round" stroke-linejoin="round"/>
<path d="M62.0767 26.0969L67.8728 28.2625L65.4569 33.0191" stroke="black" stroke-width="0.962488" stroke-linecap="round" stroke-linejoin="round"/>
<path d="M125.917 68.6387C124.964 65.6095 123.62 62.718 121.917 60.0379C118.665 54.9753 114.241 50.7712 109.019 47.7816C108.471 47.156 97.8967 35.1499 94.8379 35.0132C93.45 34.9497 92.7204 35.5907 92.7204 35.5907C91.9986 36.2221 91.91 37.1904 91.8869 37.4502C91.706 39.4156 93.4596 41.0538 95.2864 42.9691C97.2127 44.9916 99.0336 47.1119 100.742 49.3216C100.507 49.2272 97.9814 48.2494 96.0564 49.643C94.5915 50.7037 94.3528 52.5016 94.1969 53.6855C94.0489 54.8242 94.1361 55.9813 94.4529 57.085C93.6719 58.2085 93.1866 59.5108 93.0419 60.8714C92.6762 64.5828 95.1036 68.4 99.1364 70.7523C100.586 71.5454 102.182 71.5762 103.217 70.7831C103.595 70.4889 103.891 70.1033 104.078 69.6628C104.812 71.1908 105.888 72.5298 107.221 73.5763C110.424 76.0787 114.022 75.9478 115.044 75.8862L125.917 68.6387Z" fill="#FF9E9F"/>
<path d="M95.0131 35.0325C94.8206 34.9998 93.629 34.8054 92.7204 35.5907C91.8118 36.3761 91.5385 37.92 92.2353 39.2328L100.742 49.3216C100.189 49.1002 98.376 48.4573 96.6993 49.2696C94.4644 50.3534 93.2633 53.6605 94.449 57.085" stroke="black" stroke-width="0.962488" stroke-linecap="round" stroke-linejoin="round"/>
<path d="M104.655 51.824C103.501 50.7743 102.178 49.9281 100.741 49.3215" stroke="black" stroke-width="0.962488" stroke-linecap="round" stroke-linejoin="round"/>
<path d="M100.676 56.8712C100.484 56.7384 98.1987 55.1387 95.9292 56.1012C93.9907 56.9193 93.4267 59.0233 93.2438 59.7298C91.9329 64.6616 96.9879 69.1622 97.7021 69.8051C98.3611 70.4181 99.151 70.873 100.012 71.1353C100.71 71.3245 101.438 71.371 102.155 71.2719" stroke="black" stroke-width="0.962488" stroke-linecap="round" stroke-linejoin="round"/>
<path d="M98.1953 62.6462C99.8006 65.0019 101.731 67.1191 103.928 68.9351C104.446 70.4169 105.293 71.7621 106.405 72.8698C109.726 76.1422 114.19 75.9343 115.045 75.8785" stroke="black" stroke-width="0.962488" stroke-linecap="round" stroke-linejoin="round"/>
<path d="M42.7998 79.2861C44.889 81.9204 46.7764 84.7086 48.4458 87.6271C52.3662 94.5094 55.0584 102.022 56.4017 109.828H79.5014V145.12" stroke="black" stroke-width="0.962488" stroke-linecap="round" stroke-linejoin="round"/>
<path d="M129.083 66.5288L102.602 84.1635C105.154 88.872 108.165 93.9251 111.714 99.1783C115.179 104.297 118.644 108.867 121.98 112.909" stroke="black" stroke-width="0.962488" stroke-linecap="round" stroke-linejoin="round"/>
</svg>
